<?xml version="1.0" encoding="utf-8" ?>
<svg baseProfile="full" height="200mm" version="1.1" viewBox="0,0,200,200" width="200mm" xmlns="http://www.w3.org/2000/svg" xmlns:ev="http://www.w3.org/2001/xml-events" xmlns:xlink="http://www.w3.org/1999/xlink"><defs /><rect fill="#1a1a1a" height="200" width="200" x="0" y="0" /><text alignment-baseline="middle" fill="#e1ed5e" style="dominant-baseline: central; font-size:9.0px; font-family:Arial;" text-anchor="middle" x="100.0" y="100.0">2024</text><line stroke="#e1ed5e" stroke-width="0.3" x1="100.0" x2="100.0" y1="15.0" y2="10.0" /><path d="M 100.0 14.0 a86.0,86.0 0 0,1 42.35913384403234,11.155469271406648" fill="none" id="id73" stroke="none" /><text fill="#e1ed5e" style="font-size:6.75px; font-family:Arial;" text-anchor="middle"><textPath startOffset="22.145653131862478" xlink:href="#id73">January</textPath></text><path d="M 101.80034050326958 79.07731436759882 l 0.8597469315683269 -9.991562562724893 a31.028483795229803,31.028483795229803 0 0,0 0.5302922086480489,0.05021922350170077 l -1.0311387036013888 9.975331583718008" fill="#ff1c02" stroke="none" /><path d="M 106.38641147887787 79.99465700312896 l 5.328781893863454 -16.69233338547507 a38.52226898333126,38.52226898333126 0 0,0 0.6282381533813608,0.20651435941175794 l -5.614542784892556 16.598398104661293" fill="#ff910d" stroke="none" /><path d="M 107.06938296918511 80.22567764915836 l 12.585152965939665 -35.20291271075784 a58.38490522252713,58.38490522252713 0 0,0 0.9408612050928064,0.3454972667956993 l -13.187603322686597 34.98168459495343" fill="#63ff29" stroke="none" /><path d="M 109.06512990194946 81.05736502329252 l 7.339103516570099 -15.335903674227655 a38.001540575257316,38.001540575257316 0 0,0 0.5860194965499416,0.2866515015740381 l -7.6012832623821085 15.207658422556396" fill="#ff890c" stroke="none" /><line stroke="#e1ed5e" stroke-width="0.3" x1="143.13028292997686" x2="145.6673583964461" y1="26.7553504044142" y2="22.446841604673864" /><path d="M 143.63769802327073 25.89364864446614 a86.0,86.0 0 0,1 29.32050498858742,28.57503671076993" fill="none" id="id74" stroke="none" /><text fill="#e1ed5e" style="font-size:6.75px; font-family:Arial;" text-anchor="middle"><textPath startOffset="20.669276256404974" xlink:href="#id74">February</textPath></text><path d="M 116.1254893667686 86.54754324733833 l 13.263432460788747 -11.06482708911206 a38.272783190726756,38.272783190726756 0 0,0 0.4165412540395709,0.5081126012677527 l -13.451420534066946 10.835512206145813" fill="#ff8e0d" stroke="none" /><path d="M 117.42321728460499 88.27688183743584 l 14.189168509313046 -9.54710581553666 a38.102038838651225,38.102038838651225 0 0,0 0.3604735211682564,0.5458028551891891 l -14.350966469402026 9.302123082008412" fill="#ff8b0c" stroke="none" /><line stroke="#e1ed5e" stroke-width="0.3" x1="172.87174338648825" x2="177.1583165268699" y1="56.24261187166439" y2="53.66864786411523" /><path d="M 173.72905801456457 55.72781907015455 a86.0,86.0 0 0,1 12.242430191666344,42.057860355516425" fill="none" id="id75" stroke="none" /><text fill="#e1ed5e" style="font-size:6.75px; font-family:Arial;" text-anchor="middle"><textPath startOffset="22.145653131862474" xlink:href="#id75">March</textPath></text><path d="M 118.36410011445183 89.81374322990088 l 14.771590011965955 -8.193551975144423 a37.891837243207306,37.891837243207306 0 0,0 0.3106312377636545,0.5715264903596632 l -14.910066599344951 7.938770651310156" fill="#ff880c" stroke="none" /><path d="M 118.70294669586156 90.45014215332178 l 15.31915501185675 -7.822069702355055 a38.20061873031888,38.20061873031888 0 0,0 0.29319900201514965,0.5865944102553428 l -15.451173927083637 7.557943435935962" fill="#ff8c0c" stroke="none" /><path d="M 119.71291397450082 92.76114493625339 l 16.041844105569076 -5.890787358258784 a38.08924041634393,38.08924041634393 0 0,0 0.22011922571823161,0.6157126504453304 l -16.14060350133125 5.614539751432537" fill="#ff8b0c" stroke="none" /><path d="M 119.83427380445688 93.10060997987247 l 16.114407585034336 -5.605427451922664 a38.061504878977715,38.061504878977715 0 0,0 0.2093646995436421,0.6189495325316389 l -16.20825770615034 5.327976244916864" fill="#ff8a0c" stroke="none" /><path d="M 120.16314734710363 94.1308016681162 l 17.01596344034727 -4.953098964176736 a38.72219515613581,38.72219515613581 0 0,0 0.18030069678806068,0.6398235661076311 l -17.098482629209915 4.660267474166091" fill="#ff940d" stroke="none" /><path d="M 120.26092885502905 94.47779374421319 l 16.660443259338866 -4.540877896033182 a38.26817713785484,38.26817713785484 0 0,0 0.16730577198490496,0.6352872672557789 l -16.735938512128502 4.254210124404604" fill="#ff8e0d" stroke="none" /><path d="M 120.9064616781168 98.02013634271609 l 17.144250679961733 -1.623578364202603 a38.22095636374691,38.22095636374691 0 0,0 0.056251014201483186,0.653722051191959 l -17.169595316860956 1.329035265634982" fill="#ff8d0d" stroke="none" /><path d="M 120.98066250479742 99.09900007780936 l 25.51966913170777 -1.095924396893664 a46.543190146799304,46.543190146799304 0 0,0 0.02742793077294549,0.7985342779567984 l -25.534721749477562 0.6576838543727456" fill="#f9ff18" stroke="none" /><path d="M 120.99303781780057 99.45929381324524 l 8.326285623793694 -0.21445558230048295 a29.329046973440203,29.329046973440203 0 0,0 0.008643086349574848,0.5034164492030782 l -8.328740141741935 0.07149221712833842" fill="#ff0000" stroke="none" /><line stroke="#e1ed5e" stroke-width="0.3" x1="184.99686870605535" x2="189.99668451229388" y1="99.2704041080226" y2="99.22748670261217" /><path d="M 185.99683186730306 99.26182062694052 a86.0,86.0 0 0,1 -10.086455211305974,41.156179273409016" fill="none" id="id76" stroke="none" /><text fill="#e1ed5e" style="font-size:6.75px; font-family:Arial;" text-anchor="middle"><textPath startOffset="21.40746469413373" xlink:href="#id76">April</textPath></text><path d="M 120.99922638620191 99.81974689727618 l 17.20893234515533 -0.14771798697388772 a38.20956632410616,38.20956632410616 0 0,0 0.0,0.6559421793954271 l -17.20893234515533 -0.1477179869738856" fill="#ff8d0d" stroke="none" /><path d="M 120.99303781780057 100.54070618675476 l 17.35550362486011 0.44701620916670215 a38.361259446359014,38.361259446359014 0 0,0 -0.02260631394494755,0.6581581648549516 l -17.345272623918316 -0.7448806385857645" fill="#ff8f0d" stroke="none" /><path d="M 120.93736805541906 101.62068470465957 l 22.28643284973591 1.7251108518217548 a43.35310038041392,43.35310038041392 0 0,0 -0.06380415607522807,0.7415010089359554 l -22.25353507096294 -2.1074329081333674" fill="#ffd814" stroke="none" /><path d="M 120.86939407059847 102.33845913500097 l 17.45454989125787 1.9558187220225245 a38.56378486488103,38.56378486488103 0 0,0 -0.07936411084720556,0.6572486878526798 l -17.418403694151 -2.255161086798613" fill="#ff920d" stroke="none" /><line stroke="#e1ed5e" stroke-width="0.3" x1="174.33088141563837" x2="178.70328620479359" y1="141.23008692659167" y2="143.65538615756765" /><path d="M 175.20536237346943 141.71514677278685 a86.0,86.0 0 0,1 -30.301960400862466,31.631185727798858" fill="none" id="id77" stroke="none" /><text fill="#e1ed5e" style="font-size:6.75px; font-family:Arial;" text-anchor="middle"><textPath startOffset="22.145653131862474" xlink:href="#id77">May</textPath></text><path d="M 115.6541949942343 113.99807769240083 l 9.738835621548814 8.708526865429473 a34.064584165960085,34.064584165960085 0 0,0 -0.39353078278701004,0.43255926672926964 l -9.587907137919924 -8.874423707716414" fill="#ff4d07" stroke="none" /><path d="M 115.41159269507618 114.26474011684316 l 12.725315469287516 11.77836202044354 a38.33965010251115,38.33965010251115 0 0,0 -0.4512105171156492,0.4791699329592327 l -12.521249118435605 -11.99507341334727" fill="#ff8f0d" stroke="none" /><path d="M 114.13192950727249 115.5334660781643 l 8.252138918569635 9.07054623347331 a33.262650843310695,33.262650843310695 0 0,0 -0.42565893248383074,0.3806268421702709 l -8.095214959262426 -9.210868605526969" fill="#ff4006" stroke="none" /><path d="M 113.86319453409587 115.77377054828091 l 14.03891379364289 15.97370680930585 a42.266179951627436,42.266179951627436 0 0,0 -0.5490991048971314,0.47429872875729145 l -13.762635208982902 -16.21234967052786" fill="#ffc812" stroke="none" /><path d="M 112.7482090630111 116.68781488649013 l 13.658467750929868 17.87937272867222 a43.49946022628052,43.49946022628052 0 0,0 -0.5972828257258566,0.44821216748823206 l -13.349531936293245 -18.111203923424466" fill="#ffda14" stroke="none" /><path d="M 111.8722381534696 117.32195027204791 l 9.824896643360578 14.334817823256547 a38.378595917929374,38.378595917929374 0 0,0 -0.5466276426989463,0.36779547322444406 l -9.577372712564628 -14.501362970538112" fill="#ff8f0d" stroke="none" /><path d="M 111.5731344415666 117.5232005979908 l 20.876803616550973 31.61014152775727 a58.88194789934753,58.88194789934753 0 0,0 -0.8482207257260389,0.5498064265035469 l -20.331097258567926 -31.963861795964714" fill="#5dff2a" stroke="none" /><line stroke="#e1ed5e" stroke-width="0.3" x1="143.1302829299769" x2="145.66735839644613" y1="173.24464959558577" y2="177.55315839532614" /><path d="M 143.63769802327073 174.10635135553383 a86.0,86.0 0 0,1 -40.68552437913181,11.842963189579606" fill="none" id="id78" stroke="none" /><text fill="#e1ed5e" style="font-size:6.75px; font-family:Arial;" text-anchor="middle"><textPath startOffset="21.407464694133747" xlink:href="#id78">June</textPath></text><path d="M 110.65571695917076 118.09573695890943 l 8.505310179422112 14.443876123069874 a37.762036233905754,37.762036233905754 0 0,0 -0.5614091495787583,0.32412972363481624 l -8.256108561982956 -14.587752743980861" fill="#ff860c" stroke="none" /><path d="M 109.3889696526874 118.78422872680471 l 7.46848548683324 14.941973913755493 a37.70451615301648,37.70451615301648 0 0,0 -0.5814391006041493,0.28441100039038103 l -7.210886136967021 -15.067978664243098" fill="#ff850c" stroke="none" /><path d="M 109.06512990194946 118.94263497670748 l 7.250680809546168 15.151134224597756 a37.7967032626554,37.7967032626554 0 0,0 -0.5876690568431738,0.27505879175282416 l -6.9895230388314875 -15.273369247921114" fill="#ff860c" stroke="none" /><path d="M 108.4095320186766 119.2426549942271 l 10.073166728093103 23.049376780722064 a46.154372540607156,46.154372540607156 0 0,0 -0.728722431522968,0.3110482735028484 l -9.676009221399704 -23.218899703884315" fill="#ffff18" stroke="none" /><path d="M 108.07796709384702 119.3841803445677 l 4.179561970613929 10.029427213362625 a31.865456662945235,31.865456662945235 0 0,0 -0.5067298616533287,0.20608262332134733 l -4.00677764777016 -10.099697093263265" fill="#ff2a04" stroke="none" /><path d="M 107.74402155503746 119.51999308798841 l 9.382201777393387 23.649277386850635 a46.44236685357572,46.44236685357572 0 0,0 -0.743581520553489,0.28763330610048643 l -8.97484799434637 -23.80685058108916" fill="#fbff18" stroke="none" /><path d="M 107.06938296918513 119.77432235084164 l 5.9344816736991755 16.599801441287106 a38.628711825474625,38.628711825474625 0 0,0 -0.6263263528528723,0.21786881792692572 l -5.648649548801281 -16.699228691782622" fill="#ff930d" stroke="none" /><path d="M 106.38641147887787 120.00534299687104 l 5.093189599176941 15.954343877875766 a37.74758695653425,37.74758695653425 0 0,0 -0.6189873883321648,0.19176387517087992 l -4.818561577973152 -16.03942434085329" fill="#ff860c" stroke="none" /><path d="M 103.94208987418118 120.62667999033965 l 3.174029410264338 16.607863091667316 a37.90844697684528,37.90844697684528 0 0,0 -0.6402290213194501,0.11667105483521852 l -2.888465655393831 -16.659902320433897" fill="#ff880c" stroke="none" /><path d="M 103.2317021107853 120.74984581791261 l 2.9369321146586427 18.857210989051907 a40.08454810918334,40.08454810918334 0 0,0 -0.6808167601717436,0.10005661853250966 l -2.6127902488792136 -18.904848680883298" fill="#ffa90f" stroke="none" /><path d="M 102.875027216393 120.80226474461374 l 2.3012530562707116 16.650720747247096 a37.80899363530727,37.80899363530727 0 0,0 -0.643693036029184,0.08333895069751475 l -2.0150821983507523 -16.687771294145005" fill="#ff870c" stroke="none" /><path d="M 102.51750503828377 120.84855314841334 l 1.986997863217763 16.45519271147923 a37.57472556877945,37.57472556877945 0 0,0 -0.6410321513569602,0.07182898962466323 l -1.7042298102600033 -16.486877461610867" fill="#ff830c" stroke="none" /><path d="M 102.15924093988457 120.88869738790638 l 1.2327290009200784 11.925534842300783 a32.98907844934878,32.98907844934878 0 0,0 -0.5637997456665362,0.05339242209500675 l -1.027829691868527 -11.944939019900973" fill="#ff3c05" stroke="none" /><path d="M 101.08105385017728 120.97215588758144 l 1.2949951542904343 25.12256003249774 a46.1559145140082,46.1559145140082 0 0,0 -0.7916272097074303,0.033995878547077106 l -0.8635421839821745 -25.14108847947065" fill="#ffff18" stroke="none" /><path d="M 100.72087961077811 120.9876233191556 l 2.162638832334333 62.96286995746683 a84.0,84.0 0 0,0 -1.4415467437170246,0.03712913059981959 l -1.0814787745465644 -62.990716805416696" fill="#4dd2ff" stroke="none" /><line stroke="#e1ed5e" stroke-width="0.3" x1="101.45913802915013" x2="101.54496967792366" y1="184.9874750549273" y2="189.98673829345242" /><path d="M 101.47630435890484 185.9873277026323 a86.0,86.0 0 0,1 -42.54439059252881,-10.42667462771756" fill="none" id="id79" stroke="none" /><text fill="#e1ed5e" style="font-size:6.75px; font-family:Arial;" text-anchor="middle"><textPath startOffset="22.145653131862474" xlink:href="#id79">July</textPath></text><line stroke="#e1ed5e" stroke-width="0.3" x1="58.13341422392154" x2="55.67067388415222" y1="173.97424548756322" y2="178.32567169271397" /><path d="M 57.64086615596768 174.84453072859336 a86.0,86.0 0 0,1 -31.369924170532247,-30.572349798747897" fill="none" id="id80" stroke="none" /><text fill="#e1ed5e" style="font-size:6.75px; font-family:Arial;" text-anchor="middle"><textPath startOffset="22.145653131862474" xlink:href="#id80">August</textPath></text><line stroke="#e1ed5e" stroke-width="0.3" x1="26.387840678322732" x2="22.057713659400548" y1="142.50000000000003" y2="145.00000000000006" /><path d="M 25.521815274538298 143.00000000000003 a86.0,86.0 0 0,1 -11.493303480769221,-40.785679425670985" fill="none" id="id81" stroke="none" /><text fill="#e1ed5e" style="font-size:6.75px; font-family:Arial;" text-anchor="middle"><textPath startOffset="21.40746469413373" xlink:href="#id81">September</textPath></text><line stroke="#e1ed5e" stroke-width="0.3" x1="15.003131293944662" x2="10.003315487706104" y1="100.72959589197737" y2="100.7725132973878" /><path d="M 14.003168132696942 100.73817937305945 a86.0,86.0 0 0,1 10.791469493833604,-42.45332614584628" fill="none" id="id82" stroke="none" /><text fill="#e1ed5e" style="font-size:6.75px; font-family:Arial;" text-anchor="middle"><textPath startOffset="22.145653131862435" xlink:href="#id82">October</textPath></text><line stroke="#e1ed5e" stroke-width="0.3" x1="26.387840678322718" x2="22.05771365940052" y1="57.49999999999999" y2="54.99999999999999" /><path d="M 25.521815274538284 56.99999999999999 a86.0,86.0 0 0,1 29.574782752854787,-30.34633250058573" fill="none" id="id83" stroke="none" /><text fill="#e1ed5e" style="font-size:6.75px; font-family:Arial;" text-anchor="middle"><textPath startOffset="21.40746469413373" xlink:href="#id83">November</textPath></text><line stroke="#e1ed5e" stroke-width="0.3" x1="56.869717070023135" x2="54.33264160355391" y1="26.7553504044142" y2="22.446841604673864" /><path d="M 56.362301976729285 25.89364864446614 a86.0,86.0 0 0,1 42.16139366436587,-11.88097634709845" fill="none" id="id84" stroke="none" /><text fill="#e1ed5e" style="font-size:6.75px; font-family:Arial;" text-anchor="middle"><textPath startOffset="22.145653131862474" xlink:href="#id84">December</textPath></text></svg>