<?xml version="1.0" encoding="utf-8" ?>
<svg baseProfile="full" height="200mm" version="1.1" viewBox="0,0,200,200" width="200mm" xmlns="http://www.w3.org/2000/svg" xmlns:ev="http://www.w3.org/2001/xml-events" xmlns:xlink="http://www.w3.org/1999/xlink"><defs /><rect fill="#1a1a1a" height="200" width="200" x="0" y="0" /><text alignment-baseline="middle" fill="#e1ed5e" style="dominant-baseline: central; font-size:9.0px; font-family:Arial;" text-anchor="middle" x="100.0" y="100.0">2020</text><line stroke="#e1ed5e" stroke-width="0.3" x1="100.0" x2="100.0" y1="15.0" y2="10.0" /><path d="M 100.0 14.0 a86.0,86.0 0 0,1 42.35913384403234,11.155469271406648" fill="none" id="id25" stroke="none" /><text fill="#e1ed5e" style="font-size:6.75px; font-family:Arial;" text-anchor="middle"><textPath startOffset="22.145653131862478" xlink:href="#id25">January</textPath></text><path d="M 108.07796709384702 80.6158196554323 l 10.435254569560971 -25.040812145907296 a48.1281553161685,48.1281553161685 0 0,0 0.7598861047424419,0.3243501924936896 l -10.863575749473844 24.857987303754204" fill="#ceff1d" stroke="none" /><line stroke="#e1ed5e" stroke-width="0.3" x1="143.13028292997686" x2="145.6673583964461" y1="26.7553504044142" y2="22.446841604673864" /><path d="M 143.63769802327073 25.89364864446614 a86.0,86.0 0 0,1 29.32050498858742,28.57503671076993" fill="none" id="id26" stroke="none" /><text fill="#e1ed5e" style="font-size:6.75px; font-family:Arial;" text-anchor="middle"><textPath startOffset="20.669276256404974" xlink:href="#id26">February</textPath></text><path d="M 117.62189284568427 88.57770195909679 l 5.248160388828518 -3.4017941575636743 a27.254229845256972,27.254229845256972 0 0,0 0.25110530016280397,0.39477923933769454 l -5.305783380617212 3.3112012435473077" fill="#ff0a01" stroke="none" /><line stroke="#e1ed5e" stroke-width="0.3" x1="172.87174338648825" x2="177.1583165268699" y1="56.24261187166439" y2="53.66864786411523" /><path d="M 173.72905801456457 55.72781907015455 a86.0,86.0 0 0,1 12.242430191666344,42.057860355516425" fill="none" id="id27" stroke="none" /><text fill="#e1ed5e" style="font-size:6.75px; font-family:Arial;" text-anchor="middle"><textPath startOffset="22.145653131862474" xlink:href="#id27">March</textPath></text><path d="M 120.43855184770803 95.1765574152323 l 33.023152276377196 -7.793374019843218 a54.930300100086995,54.930300100086995 0 0,0 0.2087067294935606,0.9196003591245836 l -33.15206986742842 7.225339326779608" fill="#7cff26" stroke="none" /><path d="M 120.51834098615036 95.52812308129327 l 45.212365365214964 -9.853824597871354 a67.27370572067147,67.27370572067147 0 0,0 0.23623414577000973,1.1304659052329495 l -45.374857221809336 9.076242241353" fill="#37ff74" stroke="none" /><path d="M 120.65975698304385 96.23510406497455 l 43.27157916167261 -7.885523175399468 a64.98421351911003,64.98421351911003 0 0,0 0.19057450712847643,1.0991831139125567 l -43.400568486293324 7.141547028566319" fill="#33ff57" stroke="none" /><path d="M 120.7213421655516 96.59031103205396 l 30.81363205248973 -5.070371428274997 a52.228009649782194,52.228009649782194 0 0,0 0.13797771637896203,0.8859159176881498 l -30.896131261006957 4.540667328655406" fill="#9bff22" stroke="none" /><path d="M 120.82617615685814 97.30363454192243 l 44.48084700087224 -5.758936181843908 a65.85210246868652,65.85210246868652 0 0,0 0.13552335638626115,1.1223278029252493 l -44.57315244351816 4.9945147019952465" fill="#35ff62" stroke="none" /><path d="M 120.96210409425399 98.7389718711861 l 43.95143007732276 -2.6440088924228875 a65.03088675992119,65.03088675992119 0 0,0 0.057469994975892856,1.114902549299778 l -43.990341661755224 1.8891345497463787" fill="#34ff58" stroke="none" /><path d="M 120.98066250479742 99.09900007780936 l 37.53181295375589 -1.61177753768621 a58.56640534342763,58.56640534342763 0 0,0 0.03451321893306585,1.0048147120112108 l -37.553950859685806 0.9672565611108792" fill="#53ff2b" stroke="none" /><line stroke="#e1ed5e" stroke-width="0.3" x1="184.99686870605535" x2="189.99668451229388" y1="99.2704041080226" y2="99.22748670261217" /><path d="M 185.99683186730306 99.26182062694052 a86.0,86.0 0 0,1 -10.086455211305974,41.156179273409016" fill="none" id="id28" stroke="none" /><text fill="#e1ed5e" style="font-size:6.75px; font-family:Arial;" text-anchor="middle"><textPath startOffset="21.40746469413373" xlink:href="#id28">April</textPath></text><path d="M 120.99922638620191 100.18025310272382 l 35.60492744293705 0.3056254799968792 a56.60623913236043,56.60623913236043 0 0,0 -0.016681503943464206,0.9716139747929321 l -35.594434507394915 -0.9167863707588824" fill="#69ff28" stroke="none" /><path d="M 120.99303781780057 100.54070618675476 l 35.260517305455444 0.9081858481227818 a56.27221118930671,56.27221118930671 0 0,0 -0.03316124889748888,0.9654535795539315 l -35.23973136956111 -1.513345692240824" fill="#6dff28" stroke="none" /><path d="M 120.93736805541906 101.62068470465957 l 35.2946029287891 2.7320254853578088 a56.40018303841849,56.40018303841849 0 0,0 -0.08300596842389722,0.964655174836208 l -35.24250333766746 -3.337501707569674" fill="#6bff28" stroke="none" /><path d="M 120.9064616781168 101.97986365728391 l 29.085528092723713 2.7544297504904756 a50.215660657993126,50.215660657993126 0 0,0 -0.08863687621639674,0.8574813725014881 l -29.03395882402565 -3.253315645274895" fill="#b4ff20" stroke="none" /><path d="M 120.82617615685814 102.69636545807757 l 29.412862025139138 3.808083855166585 a50.6583538848307,50.6583538848307 0 0,0 -0.11906035935728879,0.8614614504576518 l -29.34315714922664 -4.3124336138243216" fill="#aeff20" stroke="none" /><path d="M 120.77682067341334 103.0534771498775 l 44.33308609576039 6.515436962411647 a65.80930083794283,65.80930083794283 0 0,0 -0.17385722923394897,1.1162881284430346 l -44.21470737438818 -7.275513272786132" fill="#35ff61" stroke="none" /><path d="M 120.592083275326 104.11899336999214 l 29.302773955397104 5.861375463126765 a50.88324419805927,50.88324419805927 0 0,0 -0.1786784241832269,0.8550409420343941 l -29.197837820389513 -6.363532856446568" fill="#acff21" stroke="none" /><path d="M 119.16976305983485 108.57439118712176 l 26.600052975171547 11.897865356779631 a50.13969832256315,50.13969832256315 0 0,0 -0.35817779408882655,0.7826831208841849 l -26.391890716227664 -12.352737459878506" fill="#b5ff20" stroke="none" /><path d="M 119.0197475246899 108.90220220490707 l 14.911805067032516 6.979477712548955 a37.46435663781443,37.46435663781443 0 0,0 -0.2776300466681514,0.5801400188948337 l -14.789795762404452 -7.234430233508892" fill="#ffa20f" stroke="none" /><path d="M 118.8641267826498 109.22738970284198 l 28.61614162720376 13.99758884300906 a52.856177659068194,52.856177659068194 0 0,0 -0.4056839667802241,0.8116396904761433 l -28.371637747211803 -14.48676038964895" fill="#94ff23" stroke="none" /><path d="M 118.70294669586154 109.54985784667822 l 38.657640231388065 19.738866548738734 a64.40548353478337,64.40548353478337 0 0,0 -0.5112321151911977,0.9803549893602185 l -38.31310004722192 -20.39956778120346" fill="#33ff50" stroke="none" /><path d="M 118.5362547648365 109.86951160357373 l 34.5486834754721 18.395227988353305 a60.1407197510707,60.1407197510707 0 0,0 -0.49302402774416454,0.9071086805957191 l -34.227814098112596 -18.985591502423627" fill="#42ff2d" stroke="none" /><line stroke="#e1ed5e" stroke-width="0.3" x1="174.33088141563837" x2="178.70328620479359" y1="141.23008692659167" y2="143.65538615756765" /><path d="M 175.20536237346943 141.71514677278685 a86.0,86.0 0 0,1 -30.301960400862466,31.631185727798858" fill="none" id="id29" stroke="none" /><text fill="#e1ed5e" style="font-size:6.75px; font-family:Arial;" text-anchor="middle"><textPath startOffset="22.145653131862474" xlink:href="#id29">May</textPath></text><path d="M 117.62189284568427 111.42229804090321 l 17.304645006929526 11.216661824702038 a41.62193592526121,41.62193592526121 0 0,0 -0.3937743558646111,0.5962245632762325 l -17.10954621214419 -11.512066266317332" fill="#ffdc14" stroke="none" /><path d="M 116.79662413953412 112.60449989151573 l 23.18991593381317 17.402145243223533 a49.993220933238334,49.993220933238334 0 0,0 -0.520996073663267,0.6820005846238654 l -22.8877678827956 -17.797666741088275" fill="#b6ff1f" stroke="none" /><path d="M 115.6541949942343 113.99807769240083 l 21.156338654722756 18.91812848151107 a49.38108966400474,49.38108966400474 0 0,0 -0.5704745660676587,0.6270514805432142 l -20.82846638781322 -19.278517537611954" fill="#beff1f" stroke="none" /><path d="M 114.65682725009322 115.03919595460226 l 27.092688606211123 27.79948524556962 a59.81784584223814,59.81784584223814 0 0,0 -0.741534814714373,0.7103735783002371 l -26.611481305631436 -28.260470954175435" fill="#45ff2d" stroke="none" /><path d="M 113.59037401385872 116.0094264158162 l 20.849315950268668 24.56044176455723 a53.21659937461331,53.21659937461331 0 0,0 -0.7015105026436671,0.5852250113909586 l -20.424631113463107 -24.91472895986006" fill="#90ff24" stroke="none" /><path d="M 113.31354834802062 116.24036423190432 l 18.36867927061252 22.4068020046759 a49.97366311365165,49.97366311365165 0 0,0 -0.668098448651611,0.5381728180259986 l -17.981330051605656 -22.7188231164953" fill="#b7ff1f" stroke="none" /><path d="M 112.7482090630111 116.68781488649013 l 23.65190482553165 30.961102652965717 a59.961551295648995,59.961551295648995 0 0,0 -0.8233206712559121,0.6178351807671999 l -23.116931165364967 -31.362556860996932" fill="#44ff2d" stroke="none" /><path d="M 111.8722381534696 117.32195027204791 l 17.768783841119344 25.925186650731717 a52.43000130556316,52.43000130556316 0 0,0 -0.746762285979662,0.5024549929490547 l -17.321125267042678 -26.226391317737892" fill="#99ff23" stroke="none" /><line stroke="#e1ed5e" stroke-width="0.3" x1="143.1302829299769" x2="145.66735839644613" y1="173.24464959558577" y2="177.55315839532614" /><path d="M 143.63769802327073 174.10635135553383 a86.0,86.0 0 0,1 -40.68552437913181,11.842963189579606" fill="none" id="id30" stroke="none" /><text fill="#e1ed5e" style="font-size:6.75px; font-family:Arial;" text-anchor="middle"><textPath startOffset="21.407464694133747" xlink:href="#id30">June</textPath></text><path d="M 110.65571695917076 118.09573695890943 l 12.876549885809126 21.867196788794047 a46.37675771964527,46.37675771964527 0 0,0 -0.6894844322041267,0.3980740225351103 l -12.499272985744602 -22.08501770860533" fill="#e4ff1a" stroke="none" /><path d="M 107.74402155503746 119.51999308798841 l 8.528533765360534 21.49747633930855 a44.12741613639591,44.12741613639591 0 0,0 -0.706517204264139,0.27329603232756594 l -8.158244298602867 -21.64071225977416" fill="#fffd17" stroke="none" /><path d="M 106.38641147887787 120.00534299687104 l 7.090334315101671 22.21037125547324 a44.314661310125445,44.314661310125445 0 0,0 -0.7266747011077673,0.2251256799408125 l -6.7080189811222795 -22.3288135232207" fill="#feff18" stroke="none" /><path d="M 105.3480935250658 120.30758222061773 l 6.711543626748722 25.484824337619553 a47.35376802988668,47.35376802988668 0 0,0 -0.7878645664511814,0.20027209187146613 l -6.273073767072143 -25.59628166132629" fill="#d7ff1c" stroke="none" /><path d="M 102.875027216393 120.80226474461374 l 1.768075886739309 12.792916350427793 a33.91451900344383,33.91451900344383 0 0,0 -0.5773901287446632,0.0747547119190855 l -1.5482079361038703 -12.821382658547273" fill="#ff6f0a" stroke="none" /><path d="M 101.44090949804482 120.95050786540614 l 1.8893110593518483 27.47016815619504 a48.5350619176464,48.5350619176464 0 0,0 -0.8316960071745507,0.050032766508246125 l -1.4174707000448323 -27.498552900527976" fill="#c8ff1d" stroke="none" /><line stroke="#e1ed5e" stroke-width="0.3" x1="101.45913802915013" x2="101.54496967792366" y1="184.9874750549273" y2="189.98673829345242" /><path d="M 101.47630435890484 185.9873277026323 a86.0,86.0 0 0,1 -42.54439059252881,-10.42667462771756" fill="none" id="id31" stroke="none" /><text fill="#e1ed5e" style="font-size:6.75px; font-family:Arial;" text-anchor="middle"><textPath startOffset="22.145653131862474" xlink:href="#id31">July</textPath></text><path d="M 100.36049292484886 120.99690560180557 l 0.6135759287066328 35.73772178745238 a56.74298859885162,56.74298859885162 0 0,0 -0.9740688535554807,0.008361209593672723 l -4.377253657954397e-15 -35.74298859885162" fill="#67ff28" stroke="none" /><path d="M 99.63950707515114 120.99690560180557 l -0.5085894287588424 29.622784497651725 a50.627150126216335,50.627150126216335 0 0,0 -0.8688262310490488,-0.0223778817730058 l 1.0170289738786351 -29.60968889852867" fill="#afff20" stroke="none" /><line stroke="#e1ed5e" stroke-width="0.3" x1="58.13341422392154" x2="55.67067388415222" y1="173.97424548756322" y2="178.32567169271397" /><path d="M 57.64086615596768 174.84453072859336 a86.0,86.0 0 0,1 -31.369924170532247,-30.572349798747897" fill="none" id="id32" stroke="none" /><text fill="#e1ed5e" style="font-size:6.75px; font-family:Arial;" text-anchor="middle"><textPath startOffset="22.145653131862474" xlink:href="#id32">August</textPath></text><line stroke="#e1ed5e" stroke-width="0.3" x1="26.387840678322732" x2="22.057713659400548" y1="142.50000000000003" y2="145.00000000000006" /><path d="M 25.521815274538298 143.00000000000003 a86.0,86.0 0 0,1 -11.493303480769221,-40.785679425670985" fill="none" id="id33" stroke="none" /><text fill="#e1ed5e" style="font-size:6.75px; font-family:Arial;" text-anchor="middle"><textPath startOffset="21.40746469413373" xlink:href="#id33">September</textPath></text><path d="M 80.9802524753101 108.90220220490708 l -13.733248225648252 6.427853601957598 a36.16309364066153,36.16309364066153 0 0,0 -0.2583345640476456,-0.5645076444100365 l 13.841567254550952 -6.191156975332873" fill="#ff900d" stroke="none" /><path d="M 79.03789590574601 101.26102812881392 l -23.174425075101283 1.394115865344067 a44.2163204795137,44.2163204795137 0 0,0 -0.03907545848469375,-0.7580534555104308 l 23.194942123042548 -0.9960906164569056" fill="#fffe18" stroke="none" /><line stroke="#e1ed5e" stroke-width="0.3" x1="15.003131293944662" x2="10.003315487706104" y1="100.72959589197737" y2="100.7725132973878" /><path d="M 14.003168132696942 100.73817937305945 a86.0,86.0 0 0,1 10.791469493833604,-42.45332614584628" fill="none" id="id34" stroke="none" /><text fill="#e1ed5e" style="font-size:6.75px; font-family:Arial;" text-anchor="middle"><textPath startOffset="22.145653131862435" xlink:href="#id34">October</textPath></text><path d="M 79.00696218219943 99.45929381324524 l -7.696223051786354 -0.1982274054313821 a28.698775445946694,28.698775445946694 0 0,0 0.016912206140509176,-0.4923804289454817 l 7.691686158648994 0.33031409894100233" fill="#ff2003" stroke="none" /><path d="M 79.22317932658666 96.9465228501225 l -24.68713397506977 -3.62815854618702 a45.952316893212824,45.952316893212824 0 0,0 0.12139837971547283,-0.7794646830949278 l 24.62121410321603 4.051411411213397" fill="#e9ff1a" stroke="none" /><path d="M 79.2786578344484 96.59031103205396 l -58.34019957118699 -9.599857638389187 a80.12475076212387,80.12475076212387 0 0,0 0.2349760666226017,-1.3552795098194024 l 58.16680868707216 10.599930181129182" fill="#48f9ff" stroke="none" /><path d="M 79.73907114497095 94.47779374421319 l -37.39463909257536 -10.192075171255203 a59.758707784967264,59.758707784967264 0 0,0 0.27825221708992914,-0.9874189561513791 l 37.21416838341084 10.832502051309595" fill="#46ff2c" stroke="none" /><path d="M 79.83685265289637 94.1308016681162 l -12.793121582041508 -3.7238912435806 a34.32408817919307,34.32408817919307 0 0,0 0.16953432087932474,-0.5643246161576915 l 12.727310941158553 3.9429534633290153" fill="#ff750a" stroke="none" /><path d="M 80.16572619554312 93.10060997987247 l -46.33562228686357 -16.11793469900315 a70.05892081642459,70.05892081642459 0 0,0 0.40487327224695874,-1.1325026005168164 l 46.05210884457267 16.910972255900887" fill="#3aff95" stroke="none" /><line stroke="#e1ed5e" stroke-width="0.3" x1="26.387840678322718" x2="22.05771365940052" y1="57.49999999999999" y2="54.99999999999999" /><path d="M 25.521815274538284 56.99999999999999 a86.0,86.0 0 0,1 29.574782752854787,-30.34633250058573" fill="none" id="id35" stroke="none" /><text fill="#e1ed5e" style="font-size:6.75px; font-family:Arial;" text-anchor="middle"><textPath startOffset="21.40746469413373" xlink:href="#id35">November</textPath></text><path d="M 83.42222388311158 87.10902102172516 l -34.229591382244685 -26.61713729466602 a64.36054570642003,64.36054570642003 0 0,0 0.6856959341311556,-0.8663544128558299 l 33.76762901747197 27.20081165143653" fill="#33ff4f" stroke="none" /><path d="M 84.10781606972428 86.27271002978789 l -4.268060358849615 -3.6866488843412086 a26.63983326200321,26.63983326200321 0 0,0 0.30190407496879246,-0.34351141754783865 l 4.20414521992223 3.759372579700347" fill="#ff0000" stroke="none" /><path d="M 86.96720088162412 83.53348406188908 l -38.198603782048295 -48.26268802868396 a82.55014530163182,82.55014530163182 0 0,0 1.118711924845714,-0.8699171592286133 l 37.364481912567335 48.91130623953338" fill="#4be0ff" stroke="none" /><path d="M 87.54013794807813 83.09580414077388 l -21.765768339545506 -29.529444989438556 a57.68428536573991,57.68428536573991 0 0,0 0.8021384157049085,-0.5806863538196468 l 21.25564891346663 29.898732114631283" fill="#5dff2a" stroke="none" /><path d="M 87.83215693770416 82.88440491214696 l -7.83685276065536 -11.023514843820818 a34.52531480979757,34.52531480979757 0 0,0 0.4859929779308218,-0.339260842712465 l 7.646464691550774 11.156420502338412" fill="#ff780b" stroke="none" /><line stroke="#e1ed5e" stroke-width="0.3" x1="56.869717070023135" x2="54.33264160355391" y1="26.7553504044142" y2="22.446841604673864" /><path d="M 56.362301976729285 25.89364864446614 a86.0,86.0 0 0,1 42.16139366436587,-11.88097634709845" fill="none" id="id36" stroke="none" /><text fill="#e1ed5e" style="font-size:6.75px; font-family:Arial;" text-anchor="middle"><textPath startOffset="22.145653131862474" xlink:href="#id36">December</textPath></text><path d="M 89.34428304082924 81.90426304109057 l -12.243355449898493 -20.791894207091904 a45.12887517874509,45.12887517874509 0 0,0 0.6709321308472413,-0.3873628463526219 l 11.884630851190852 20.9990039507207" fill="#f4ff19" stroke="none" /><path d="M 90.28995756902619 81.37971332152246 l -29.130127292921458 -55.86086003543261 a84.0,84.0 0 0,0 1.2842911131456707,-0.6557681933086643 l 28.166908958062205 56.35268618041411" fill="#4dd2ff" stroke="none" /><path d="M 90.61103034731259 81.2157712731953 l -19.875116784945604 -39.76354738280712 a65.45402082691703,65.45402082691703 0 0,0 1.0093625613992951,-0.49372980858336996 l 19.189593974284257 40.0988709414877" fill="#34ff5d" stroke="none" /></svg>