<?xml version="1.0" encoding="utf-8" ?>
<svg baseProfile="full" height="200mm" version="1.1" viewBox="0,0,200,200" width="200mm" xmlns="http://www.w3.org/2000/svg" xmlns:ev="http://www.w3.org/2001/xml-events" xmlns:xlink="http://www.w3.org/1999/xlink"><defs /><rect fill="#1a1a1a" height="200" width="200" x="0" y="0" /><text alignment-baseline="middle" fill="#e1ed5e" style="dominant-baseline: central; font-size:9.0px; font-family:Arial;" text-anchor="middle" x="100.0" y="100.0">2019</text><line stroke="#e1ed5e" stroke-width="0.3" x1="100.0" x2="100.0" y1="15.0" y2="10.0" /><path d="M 100.0 14.0 a86.0,86.0 0 0,1 42.46469731375804,11.215312516191453" fill="none" id="id13" stroke="none" /><text fill="#e1ed5e" style="font-size:6.75px; font-family:Arial;" text-anchor="middle"><textPath startOffset="22.20632615414155" xlink:href="#id13">January</textPath></text><line stroke="#e1ed5e" stroke-width="0.3" x1="143.23703022742887" x2="145.7803849466894" y1="26.81831364943548" y2="22.513508569990506" /><path d="M 143.74570117128098 25.957352633546492 a86.0,86.0 0 0,1 28.547481713284135,27.462654790039103" fill="none" id="id14" stroke="none" /><text fill="#e1ed5e" style="font-size:6.75px; font-family:Arial;" text-anchor="middle"><textPath startOffset="19.985693538727396" xlink:href="#id14">February</textPath></text><line stroke="#e1ed5e" stroke-width="0.3" x1="172.23445277983987" x2="176.4835382374775" y1="55.19839476539836" y2="52.563006222186495" /><path d="M 173.08426987136738 54.67131705675599 a86.0,86.0 0 0,1 12.851231095245387,41.99856678651699" fill="none" id="id15" stroke="none" /><text fill="#e1ed5e" style="font-size:6.75px; font-family:Arial;" text-anchor="middle"><textPath startOffset="22.20632615414155" xlink:href="#id15">March</textPath></text><path d="M 119.34039704204932 91.81776055985345 l 10.355000398788018 -4.3808352269855355 a32.24356485038875,32.24356485038875 0 0,0 0.2118529850872447,0.5130188074168056 l -10.42887507076146 4.201941849115427" fill="#ff7d0b" stroke="none" /><path d="M 119.61058180528143 92.48833698450437 l 17.86978331379459 -6.844865274573402 a40.13586518318501,40.13586518318501 0 0,0 0.2415709140796172,0.6472899482311764 l -17.98495881637583 6.536252189312893" fill="#ffe615" stroke="none" /><path d="M 119.85752413597 93.16781622104841 l 11.58371298381247 -3.985494637001406 a33.25016628429641,33.25016628429641 0 0,0 0.18155019279505122,0.5428119683124967 l -11.650600470379292 3.785509565766595" fill="#ff8b0c" stroke="none" /><path d="M 119.97218684219823 93.5106431181261 l 12.26721617557674 -3.9858601533917897 a33.89851440518357,33.89851440518357 0 0,0 0.175537026188961,0.5565003428370795 l -12.334008685533906 3.774109644128291" fill="#ff940d" stroke="none" /><path d="M 120.08093135843002 93.85539295169968 l 25.852646591746513 -7.910706512035128 a48.03587641111894,48.03587641111894 0 0,0 0.2351335629587673,0.7927534831413995 l -25.984986051816982 7.464523642147198" fill="#b8ff1f" stroke="none" /><path d="M 120.28053869075195 94.5502522615342 l 12.244856122329963 -3.2904144203495296 a33.6792479475009,33.6792479475009 0 0,0 0.1456285358801267,0.5611661543646241 l -12.299680990080393 3.079151840436055" fill="#ff910d" stroke="none" /><path d="M 120.37134235888165 94.90015583598534 l 17.26699239338317 -4.32268864938534 a38.799850096915904,38.799850096915904 0 0,0 0.1566168877626445,0.6492781111170224 l -17.338842081406636 4.0248253066089115" fill="#ffd513" stroke="none" /><path d="M 120.53481517161879 95.60439243477599 l 13.280874243274583 -2.84285545346472 a34.58173213529734,34.58173213529734 0 0,0 0.11958808267353667,0.5831539619592774 l -13.327841621863117 2.613825835342031" fill="#ff9d0e" stroke="none" /><path d="M 120.67395015179393 96.31383870115 l 19.1901546118303 -3.4216008421079813 a40.49280345021377,40.49280345021377 0 0,0 0.1164421439136143,0.6872481247899839 l -19.24620861726414 3.0907669290021595" fill="#ffea16" stroke="none" /><path d="M 120.78858239683441 97.02765380044208 l 12.95976932048101 -1.8529845061847383 a34.09156875321829,34.09156875321829 0 0,0 0.07805995352617097,0.5816373225961682 l -12.989745273065017 1.6296288415239057" fill="#ff960d" stroke="none" /><path d="M 120.83666639777658 97.38593545837742 l 18.755209973298903 -2.352935370080041 a39.90222754064463,39.90222754064463 0 0,0 0.07963277479042329,0.6822449834883317 l -18.792933101092917 2.029746648266856" fill="#ffe315" stroke="none" /><path d="M 120.91429891909075 98.10471618934814 l 12.651261175354502 -1.1464754607715193 a33.703102585950546,33.703102585950546 0 0,0 0.047385785749271964,0.5782266099350877 l -12.669121444923269 0.9285349336286628" fill="#ff910d" stroke="none" /><line stroke="#e1ed5e" stroke-width="0.3" x1="184.98032266829074" x2="189.97916517819016" y1="98.17113171792111" y2="98.06355123074" /><path d="M 185.9800911702706 98.14961562048488 a86.0,86.0 0 0,1 -9.607161424134198,41.387399972396054" fill="none" id="id16" stroke="none" /><text fill="#e1ed5e" style="font-size:6.75px; font-family:Arial;" text-anchor="middle"><textPath startOffset="21.466115282336823" xlink:href="#id16">April</textPath></text><path d="M 120.99980553446 99.90962569577887 l 19.424549850099282 -0.083595068279594 a40.424729728221,40.424729728221 0 0,0 -0.0029947076956810255,0.695864602044268 l -19.4231108451141 -0.2507790119683588" fill="#ffe915" stroke="none" /><path d="M 120.9904718944345 100.63252640178507 l 18.048667617145366 0.5438781387242003 a39.05686036341794,39.05686036341794 0 0,0 -0.026033940124582478,0.6718203154030177 l -18.03663154416958 -0.8544757011412242" fill="#ffd814" stroke="none" /><path d="M 120.92983693683757 101.71520430193887 l 27.600905599151204 2.261899706335022 a48.69343207648295,48.69343207648295 0 0,0 -0.07564966095952695,0.8347877049038042 l -27.5578813419146 -2.7366687997873966" fill="#b0ff20" stroke="none" /><path d="M 120.8583938346157 102.4346265915055 l 13.420194280893819 1.5664275072422524 a34.511303033844676,34.511303033844676 0 0,0 -0.07395031192608009,0.5894567464117928 l -13.39124245972089 -1.7972020079414401" fill="#ff9c0e" stroke="none" /><path d="M 120.64145759157962 103.86396538481128 l 4.488776154435723 0.8402737841527892 a25.566746259314744,25.566746259314744 0 0,0 -0.08469905956451025,0.43187867995375584 l -4.473647161895549 -0.91741619117449" fill="#ff1e03" stroke="none" /><path d="M 120.5718875245553 104.21870165774334 l 27.017394046511154 5.540489413811601 a48.579641114579694,48.579641114579694 0 0,0 -0.1750392973026781,0.8177253234155246 l -26.91802071048403 -6.004728556643295" fill="#b2ff20" stroke="none" /><path d="M 120.41448212921028 104.9243191809786 l 12.730341605188679 3.070774215582101 a34.09546683657676,34.09546683657676 0 0,0 -0.14253315343235298,0.5693490963017527 l -12.675597137461265 -3.28945115128125" fill="#ff960d" stroke="none" /><path d="M 120.32669344350535 105.2749913415812 l 3.202916254248403 0.8311905502942648 a24.309010465777813,24.309010465777813 0 0,0 -0.10859404923916603,0.40411885519683444 l -3.1881341286674596 -0.8862003386666475" fill="#ff0b01" stroke="none" /><path d="M 120.23288151984713 105.62410040840565 l 20.04597658277546 5.5721467540590615 a41.806008665910745,41.806008665910745 0 0,0 -0.19869273748863947,0.6916754852362549 l -19.94709120840072 -5.916379714799898" fill="#fffb17" stroke="none" /><path d="M 120.13307415673323 105.97154293290107 l 12.879843692481705 3.820208428179226 a34.434446991874744,34.434446991874744 0 0,0 -0.17344012358557534,0.5668123590560501 l -12.812176796389997 -4.0413477597873335" fill="#ff9b0e" stroke="none" /><path d="M 120.02730092923936 106.31721596034902 l 16.083533899678823 5.073232654207911 a37.86468950991507,37.86468950991507 0 0,0 -0.20141805862482565,0.6199010431194304 l -15.99382359003775 -5.349332597305136" fill="#ffc912" stroke="none" /><path d="M 119.9155931802556 106.66101706037122 l 2.4248266476216087 0.8110133362366161 a23.556858795977888,23.556858795977888 0 0,0 -0.13192869469440974,0.3834465412350552 l -2.410507121983968 -0.8526325805609717" fill="#ff0000" stroke="none" /><path d="M 119.79798401119884 107.00284435728193 l 4.167405265982231 1.4740738468564645 a25.42042535927513,25.42042535927513 0 0,0 -0.14946694318085577,0.41126883413594933 l -4.141414061796149 -1.5455904779985448" fill="#ff1c02" stroke="none" /><path d="M 119.67450827220406 107.3425965602758 l 18.13955976813923 6.7697483116580734 a40.36164044664327,40.36164044664327 0 0,0 -0.24852338070195543,0.64881612470195 l -18.020342107843767 -7.080988003193167" fill="#ffe915" stroke="none" /><path d="M 119.54520255179757 107.68017299344265 l 17.07715813643959 6.7103693797315165 a39.34825297485848,39.34825297485848 0 0,0 -0.25313552906867437,0.6282616236548068 l -16.95911999311352 -7.003330371229137" fill="#ffdc14" stroke="none" /><path d="M 119.41010516605496 108.01547362559984 l 16.5904331774943 6.851079807854014 a38.94936677296691,38.94936677296691 0 0,0 -0.26123714729301306,0.6174874479948848 l -16.470045049008977 -7.135641781515062" fill="#ffd714" stroke="none" /><path d="M 118.97047184881838 109.00673069616215 l 24.756850617953855 11.753966278646608 a48.40542602842079,48.40542602842079 0 0,0 -0.363839945750646,0.7496180540784931 l -24.550857415588496 -12.178373288690377" fill="#b4ff20" stroke="none" /><path d="M 118.81262510543309 109.33194174019688 l 13.377868484968127 6.636048324467178 a35.93333527935963,35.93333527935963 0 0,0 -0.27963206906518756,0.551740600966881 l -13.26165774611667 -6.865343137136754" fill="#ffaf10" stroke="none" /><line stroke="#e1ed5e" stroke-width="0.3" x1="174.80103733775053" x2="179.2010983576182" y1="140.37084112569926" y2="142.7455964860345" /><path d="M 175.68104954172406 140.8457921977663 a86.0,86.0 0 0,1 -30.038265399797805,32.042727171017184" fill="none" id="id17" stroke="none" /><text fill="#e1ed5e" style="font-size:6.75px; font-family:Arial;" text-anchor="middle"><textPath startOffset="22.206326154141568" xlink:href="#id17">May</textPath></text><path d="M 118.48025628344425 109.97397251340804 l 17.47245440658731 9.430052122664486 a40.854786476475674,40.854786476475674 0 0,0 -0.3393351689675618,0.6159918982388027 l -17.307542828168238 -9.729414539301095" fill="#ffef16" stroke="none" /><path d="M 118.12598468904814 110.60418214915192 l 31.2127534641404 18.26028923605468 a57.161777359493584,57.161777359493584 0 0,0 -0.5041644926694431,0.8450086892014232 l -30.89380809577273 -18.794860019142206" fill="#53ff2b" stroke="none" /><path d="M 117.75023020441432 111.22182372390056 l 15.325663764823013 9.688995311049178 a39.131536062064406,39.131536062064406 0 0,0 -0.36484592616846584,0.5662489795788619 l -15.156612975277497 -9.951365890549493" fill="#ffd914" stroke="none" /><path d="M 117.35343817320211 111.8261652097733 l 16.34309811018994 11.13763027024264 a40.77735229690565,40.77735229690565 0 0,0 -0.40027649575305296,0.5766281461640161 l -16.14896070727475 -11.417299678593677" fill="#ffee16" stroke="none" /><path d="M 117.14729908036423 112.12312394758627 l 8.802439453646588 6.223316222429498 a31.780195041810153,31.780195041810153 0 0,0 -0.31964854262261805,0.44396386845122293 l -8.694011118648367 -6.373913696331852" fill="#ff770a" stroke="none" /><path d="M 116.93607887273984 112.41649034213515 l 15.64222022779202 11.467912841416185 a40.39567164583542,40.39567164583542 0 0,0 -0.41595756512840176,0.5572431333032988 l -15.442501395968527 -11.735468854228799" fill="#ffe915" stroke="none" /><path d="M 116.27256486870786 113.27417163493432 l 21.303156792082866 17.377823465790218 a48.492057720662444,48.492057720662444 0 0,0 -0.5331909571949591,0.6422628559234064 l -21.000869834994365 -17.741947578827393" fill="#b3ff20" stroke="none" /><path d="M 115.32070863581623 114.36230785411682 l 12.719961673690147 11.924252969802133 a38.43517232114387,38.43517232114387 0 0,0 -0.45663446146409303,0.4787794072445827 l -12.512820660847089 -12.141439493629223" fill="#ffd013" stroke="none" /><path d="M 115.07121518719521 114.62390073753431 l 9.608154952143245 9.322984414048477 a34.38785568972812,34.38785568972812 0 0,0 -0.4158627779354189,0.4212667984668403 l -9.44625154915229 -9.486991706495983" fill="#ff9a0e" stroke="none" /><path d="M 114.55890576462653 115.13401014063108 l 19.234978816562936 19.99479694222438 a48.74484303135288,48.74484303135288 0 0,0 -0.6096915963133981,0.5765014593449999 l -18.88795138585873 -20.322933038315302" fill="#b0ff20" stroke="none" /><path d="M 114.0293411484842 115.62618273729858 l 12.973090083414117 14.449707521209422 a40.41893698843667,40.41893698843667 0 0,0 -0.5217077122905969,0.4603463981808623 l -12.722440018216933 -14.670877061162573" fill="#ffe915" stroke="none" /><path d="M 112.63410532772338 116.77436683061366 l 18.421327848418933 24.458092031124472 a51.619333524782824,51.619333524782824 0 0,0 -0.7143501971085122,0.5284591981196199 l -17.997592680891856 -24.771561177983862" fill="#8fff24" stroke="none" /><path d="M 112.04921762599082 117.19931262002967 l 13.711812234162656 19.572535954019514 a44.897655918861986,44.897655918861986 0 0,0 -0.6367837005716046,0.43798563575693694 l -13.372871648968166 -19.805662379141545" fill="#ddff1b" stroke="none" /><path d="M 111.45004920935366 117.60387380957326 l 8.455187502178312 12.99942481496373 a36.50726414351955,36.50726414351955 0 0,0 -0.529734654381428,0.33810171995392774 l -8.230171045749954 -13.143040963741466" fill="#ffb710" stroke="none" /><path d="M 111.1453310114006 117.79835938074945 l 8.45761822404375 13.506259123459605 a36.93581944970866,36.93581944970866 0 0,0 -0.5417619360978597,0.33279442985855173 l -8.223877088013584 -13.649842020146536" fill="#ffbc11" stroke="none" /><line stroke="#e1ed5e" stroke-width="0.3" x1="143.8653032363475" x2="146.44561519142675" y1="172.8068346515853" y2="177.08958963109032" /><path d="M 144.38136562736335 173.6633856474863 a86.0,86.0 0 0,1 -40.68145358897372,12.25698825130547" fill="none" id="id18" stroke="none" /><text fill="#e1ed5e" style="font-size:6.75px; font-family:Arial;" text-anchor="middle"><textPath startOffset="21.466115282336833" xlink:href="#id18">June</textPath></text><path d="M 110.8373102113329 117.98757091392108 l 4.899223648829261 8.131642546719787 a30.493471592040045,30.493471592040045 0 0,0 -0.4519308611107702,0.26700871866972925 l -4.758524916690108 -8.214769837683265" fill="#ff6509" stroke="none" /><path d="M 110.5260780823613 118.17145234162733 l 7.9592271971759425 13.740228464771373 a36.879016841113895,36.879016841113895 0 0,0 -0.5520459247018104,0.31346608355930533 l -7.721532505552934 -13.875197714125306" fill="#ffbc11" stroke="none" /><path d="M 109.89434966115114 118.52300852407294 l 9.134100050905172 17.099760863208388 a40.38642837963866,40.38642837963866 0 0,0 -0.6160066868790659,0.32226558430112523 l -8.83840246149961 -17.254455866454233" fill="#ffe915" stroke="none" /><path d="M 109.2508944713604 118.85261126421891 l 8.767776995190422 17.868055013860594 a40.90329880737711,40.90329880737711 0 0,0 -0.6347555675393043,0.3047212464511807 l -8.458908759650885 -18.016330536811335" fill="#fff016" stroke="none" /><path d="M 108.59647513512805 119.15986991738527 l 11.480678552523033 25.588197973235907 a49.045710109460174,49.045710109460174 0 0,0 -0.7732390768557837,0.3389652878917709 l -11.038518801009495 -25.782027814422133" fill="#acff20" stroke="none" /><path d="M 108.2653958097858 119.30500536409082 l 9.233549789229617 21.566266433318802 a44.45980156742754,44.45980156742754 0 0,0 -0.7061244156103142,0.2951600629934971 l -8.860953914121842 -21.722011539332275" fill="#e2ff1b" stroke="none" /><path d="M 107.93186726928326 119.44442032107085 l 7.670475397549115 18.80363634802165 a41.307952450531474,41.307952450531474 0 0,0 -0.6606890771427745,0.2629018188636948 l -7.345665244364475 -18.932885011291415" fill="#fff517" stroke="none" /><path d="M 107.2578585660854 119.70592522655815 l 4.6292145012192725 12.56885264270555 a34.39424068965259,34.39424068965259 0 0,0 -0.5573184444610303,0.1998345657432367 l -4.412176496128508 -12.646674749488747" fill="#ff9a0e" stroke="none" /><path d="M 106.2309692047433 120.05430185196036 l 15.33593041982097 49.35851353359736 a72.68610664470583,72.68610664470583 0 0,0 -1.1980228819160867,0.3609544667897626 l -14.484032563464638 -49.615183369492854" fill="#3fffba" stroke="none" /><path d="M 105.53697534728816 120.25689768951611 l 5.5345442346626355 20.248003519569878 a41.99077955708057,41.99077955708057 0 0,0 -0.6988656556664408,0.1845767715526075 l -5.185188136184697 -20.34027164042607" fill="#fffd17" stroke="none" /><path d="M 104.83641907484287 120.43548508189849 l 4.520463202872844 19.1004660506142 a40.62810207124451,40.62810207124451 0 0,0 -0.6819327308820865,0.15520566936640381 l -4.191010322597895 -19.17544845355829" fill="#ffec16" stroke="none" /><path d="M 104.13013068566511 120.58985236759428 l 3.9954823224524314 19.91859275595302 a41.315368969490414,41.315368969490414 0 0,0 -0.6984901904803984,0.1338673074262329 l -3.6520245174003287 -19.98441726172772" fill="#fff517" stroke="none" /><path d="M 103.41894727170886 120.7198165907248 l 2.7527450116573466 16.68243679407927 a37.90802479557131,37.90802479557131 0 0,0 -0.6447327113531974,0.10069398991546916 l -2.465176436695632 -16.727349091341843" fill="#ffc912" stroke="none" /><path d="M 101.62511606390274 120.93702456842531 l 2.503341805167723 32.25156039138127 a53.348568250734274,53.348568250734274 0 0,0 -0.9161657319210295,0.06318415286103383 l -1.9478133124677632 -32.28987288875859" fill="#7cff26" stroke="none" /><path d="M 100.90346689309514 120.98055641714683 l 0.8457958730696513 19.641304145119413 a40.65950658536441,40.65950658536441 0 0,0 -0.6994977257258388,0.024092116016059838 l -0.5075777956691603 -19.652953059561565" fill="#ffec16" stroke="none" /><line stroke="#e1ed5e" stroke-width="0.3" x1="102.19456741930631" x2="102.32365962044197" y1="184.97166512339345" y2="189.96999836594603" /><path d="M 102.22038585953345 185.97133177190398 a86.0,86.0 0 0,1 -42.740103519485714,-10.115201625700543" fill="none" id="id19" stroke="none" /><text fill="#e1ed5e" style="font-size:6.75px; font-family:Arial;" text-anchor="middle"><textPath startOffset="22.20632615414155" xlink:href="#id19">July</textPath></text><path d="M 100.18074693466247 120.99922214144158 l 0.16847695961316786 19.573693502677905 a40.574418556439824,40.574418556439824 0 0,0 -0.6984477885512331,0.0 l 0.1684769596131544 -19.573693502677905" fill="#ffeb16" stroke="none" /><path d="M 97.65516085044442 120.86867818915974 l -3.1784039714082493 28.287266376901535 a49.46527166361227,49.46527166361227 0 0,0 -0.8453204529230297,-0.10235653459996513 l 3.6648518473826686 -28.22836431357622" fill="#a7ff21" stroke="none" /><path d="M 96.93821686468263 120.77559828337769 l -2.8859396628879135 19.58241993517644 a40.79393387519078,40.79393387519078 0 0,0 -0.6938157220258939,-0.1083597467394468 l 3.222591248522325 -19.529841881089887" fill="#ffee16" stroke="none" /><path d="M 96.58105272829116 120.7198165907248 l -3.621900941244171 21.94977495948452 a43.24659046236522,43.24659046236522 0 0,0 -0.7334436987380194,-0.12751858835950242 l 3.9991936114542406 -21.884177792604014" fill="#f1ff19" stroke="none" /><path d="M 95.51606077576429 120.51570834832081 l -3.9345810579307665 18.002188125351765 a39.42714588323389,39.42714588323389 0 0,0 -0.6617749757518139,-0.1506178299267659 l 4.243876183075443 -17.931793561847314" fill="#ffdd14" stroke="none" /><path d="M 94.81253420990036 120.34920634021253 l -6.821244291053103 26.758134548193354 a48.61389393362413,48.61389393362413 0 0,0 -0.8090962162833427,-0.21368966448150672 l 7.2808309501479345 -26.636753534408268" fill="#b1ff20" stroke="none" /><path d="M 93.76903079525671 120.05430185196036 l -3.890854167135448 12.522668844245521 a34.11319873762892,34.11319873762892 0 0,0 -0.559259341716015,-0.1790571803895489 l 4.105834853942404 -12.453838817196266" fill="#ff970d" stroke="none" /><path d="M 92.7421414339146 119.70592522655815 l -7.797345896376788 21.17069570873242 a43.56096096844027,43.56096096844027 0 0,0 -0.7013932436061256,-0.2652069088977018 l 8.160609360743196 -21.033340549728088" fill="#edff19" stroke="none" /><path d="M 92.40401165467489 119.57807347666478 l -10.340793499985171 26.652596837424728 a49.58833553020599,49.58833553020599 0 0,0 -0.7931274656552801,-0.31560178686965706 l 10.79804204168231 -26.470648206149004" fill="#a6ff21" stroke="none" /><path d="M 92.06813273071674 119.44442032107085 l -15.407768661179178 37.77107204226618 a61.792808414455564,61.792808414455564 0 0,0 -0.9814126287631569,-0.410230558417922 l 16.055652749439798 -37.50025644082828" fill="#31ff3d" stroke="none" /><path d="M 91.07499286063937 119.00905698771935 l -8.854863277506801 18.85966005766673 a41.83495575119103,41.83495575119103 0 0,0 -0.6492134340039798,-0.3116619009573274 l 9.178189379511023 -18.70444388020984" fill="#fffb17" stroke="none" /><path d="M 90.7491055286396 118.85261126421891 l -8.103642901612373 16.5146008227763 a39.395680705331245,39.395680705331245 0 0,0 -0.6062171559097839,-0.3039698668348843 l 8.386713965204917 -16.372663115032115" fill="#ffdc14" stroke="none" /><path d="M 90.42595943632237 118.69057910512821 l -12.655837687170298 24.7069075862424 a48.7597101937164,48.7597101937164 0 0,0 -0.7437227983437587,-0.38908061758325113 l 13.079251388040552 -24.48539754971443" fill="#b0ff20" stroke="none" /><line stroke="#e1ed5e" stroke-width="0.3" x1="58.666819895761336" x2="56.23545636021788" y1="174.27360380694188" y2="178.64263932499728" /><path d="M 58.180547188652646 175.14741091055294 a86.0,86.0 0 0,1 -31.652253787137756,-30.449443065178592" fill="none" id="id20" stroke="none" /><text fill="#e1ed5e" style="font-size:6.75px; font-family:Arial;" text-anchor="middle"><textPath startOffset="22.20632615414155" xlink:href="#id20">August</textPath></text><path d="M 89.7882731507175 118.34994917583269 l -11.54843163129821 20.75193908166379 a44.74887889547323,44.74887889547323 0 0,0 -0.6698507266516941,-0.3803587246229203 l 11.90393112487111 -20.550077191246235" fill="#dfff1b" stroke="none" /><path d="M 89.1626897886671 117.98757091392108 l -19.09721975311138 31.697218947244284 a58.005641344100084,58.005641344100084 0 0,0 -0.8508068597737742,-0.5226350633962092 l 19.640005812817463 -31.3637954170197" fill="#4bff2c" stroke="none" /><path d="M 88.54995079064634 117.60387380957326 l -10.568032578923656 16.247817676002157 a40.38233452971545,40.38233452971545 0 0,0 -0.57943900560715,-0.38402057707316944 l 10.846146283270768 -16.06349907783767" fill="#ffe915" stroke="none" /><path d="M 87.95078237400918 117.19931262002967 l -11.179136069017533 15.957339475563781 a40.483576837634175,40.483576837634175 0 0,0 -0.5672957302021675,-0.40475044086341666 l 11.452159127068587 -15.762544772856145" fill="#ffea16" stroke="none" /><path d="M 87.07902340077011 116.55440617244103 l -11.159740972094188 14.297904141571635 a39.13752688229046,39.13752688229046 0 0,0 -0.5275039875050138,-0.41908107073998274 l 11.404202452316559 -14.10368915682652" fill="#ffd914" stroke="none" /><path d="M 86.51685102203217 116.09983520530335 l -18.252450365439774 21.79471898269047 a49.42818530749528,49.42818530749528 0 0,0 -0.6475904861066023,-0.5518906614356146 l 18.624906328123433 -21.4773039310319" fill="#a8ff21" stroke="none" /><path d="M 85.97065885151581 115.62618273729859 l -12.914254884666905 14.384175607965707 a40.33086876337788,40.33086876337788 0 0,0 -0.5125870020637484,-0.4682360730647163 l 13.159941436197506 -14.159746768314415" fill="#ffe815" stroke="none" /><path d="M 85.18274418774928 114.88116024355367 l -8.72167464661414 8.759289820797761 a33.36093713300586,33.36093713300586 0 0,0 -0.4034439400885628,-0.4086865812942471 l 8.871159211758236 -8.60786274552285" fill="#ff8c0c" stroke="none" /><path d="M 84.43433777217949 114.09645910891817 l -14.34627504781428 12.992166771764994 a40.3548961550532,40.3548961550532 0 0,0 -0.4618543887727303,-0.5188983018709261 l 14.567788286235348 -12.743294300153204" fill="#ffe915" stroke="none" /><path d="M 83.95833913139862 113.55231037782056 l -14.896586833258826 12.584929327961799 a40.500993448299326,40.500993448299326 0 0,0 -0.4453257807379995,-0.5364235906358938 l 15.111008613890363 -12.326644480212144" fill="#ffea16" stroke="none" /><path d="M 83.72743513129214 113.27417163493432 l -22.176867678219757 18.090543823979985 a49.619595312733,49.619595312733 0 0,0 -0.5341953195855006,-0.6664907974682205 l 22.48498090986012 -17.706125192933506" fill="#a6ff21" stroke="none" /><path d="M 83.50135304334701 112.99209946851258 l -23.474396352776104 18.485254771487423 a50.87895460175986,50.87895460175986 0 0,0 -0.5359084716657461,-0.6927339408169492 l 23.789111641659918 -18.078442836557223" fill="#97ff23" stroke="none" /><path d="M 83.28015986056508 112.70617746262583 l -50.159520418304766 38.118532387877515 a84.0,84.0 0 0,0 -0.8649549332196598,-1.158748481962768 l 50.80823661821951 -37.24947102640544" fill="#4dd2ff" stroke="none" /><path d="M 82.85270091963577 112.12312394758628 l -15.970025993435925 11.290793008112974 a40.55821405402528,40.55821405402528 0 0,0 -0.39812540248670303,-0.5735293358777293 l 16.16201230308476 -11.014222410048232" fill="#ffeb16" stroke="none" /><path d="M 82.44556493220864 111.52570212397912 l -16.31133969652717 10.709523938491603 a40.51291125600247,40.51291125600247 0 0,0 -0.37772528544583944,-0.586238031190399 l 16.493269845350056 -10.427164307379755" fill="#ffeb16" stroke="none" /><path d="M 82.05923443525364 110.91462005526583 l -23.2284814712328 14.131506752280139 a48.189369881428746,48.189369881428746 0 0,0 -0.42502823286153485,-0.7123717658542115 l 23.468290579792566 -13.729572892539815" fill="#b6ff1f" stroke="none" /><line stroke="#e1ed5e" stroke-width="0.3" x1="26.63291911575756" x2="22.317208475507996" y1="142.92168965132927" y2="145.44649492493687" /><path d="M 25.769776987707644 143.4266507060508 a86.0,86.0 0 0,1 -11.730757126820373,-40.83630448921669" fill="none" id="id21" stroke="none" /><text fill="#e1ed5e" style="font-size:6.75px; font-family:Arial;" text-anchor="middle"><textPath startOffset="21.46611528233685" xlink:href="#id21">September</textPath></text><path d="M 81.69416730710424 110.29060199501025 l -16.8139899793804 9.451964394552961 a40.28859481513885,40.28859481513885 0 0,0 -0.33463244599093006,-0.6074550900379805 l 16.974198834822843 -9.161138786117158" fill="#ffe815" stroke="none" /><path d="M 81.51974371655577 109.97397251340807 l -47.78053128318939 25.787613460831654 a75.29530530081865,75.29530530081865 0 0,0 -0.6057596653816548,-1.145869000411793 l 48.21734345679593 -24.961329445333735" fill="#42ffd6" stroke="none" /><path d="M 81.35079622478065 109.6543875284942 l -17.153223071207943 8.87994280550463 a40.31544578723602,40.31544578723602 0 0,0 -0.31373351327189336,-0.6190259855915708 l 17.3035352542661 -8.583362608210374" fill="#ffe815" stroke="none" /><path d="M 81.18737489456691 109.33194174019688 l -14.014301689964007 6.951748954084954 a36.643767620939315,36.643767620939315 0 0,0 -0.2754333040158228,-0.5674741869224366 l 14.13188825059455 -6.709485811197234" fill="#ffb911" stroke="none" /><path d="M 81.02952815118164 109.00673069616217 l -15.267357988898302 7.248579948024443 a37.90071392646118,37.90071392646118 0 0,0 -0.27473574759522235,-0.5917563586805958 l 15.38986835333335 -6.98470352206502" fill="#ffc912" stroke="none" /><path d="M 80.20201598880116 107.00284435728193 l -15.424235372226049 5.45578375963346 a37.360703323809446,37.360703323809446 0 0,0 -0.2092362511090377,-0.6081384870409764 l 15.515862454278315 -5.189472569503187" fill="#ffc212" stroke="none" /><path d="M 79.86692584326677 105.97154293290107 l -48.12045706700928 14.272702374682687 a71.19251359928248,71.19251359928248 0 0,0 -0.3383589074187886,-1.1778717452432421 l 48.35900861131418 -13.442273153934849" fill="#3dffaa" stroke="none" /><path d="M 79.76711848015287 105.62410040840567 l -18.902079412724202 5.254179561153378 a40.61874126914808,40.61874126914808 0 0,0 -0.1814534407159294,-0.6752557552407863 l 18.989720929781907 -4.928032872737052" fill="#ffec16" stroke="none" /><path d="M 79.67330655649465 105.27499134158121 l -18.95070156632963 4.917906936369841 a40.5784294183901,40.5784294183901 0 0,0 -0.16963461841005711,-0.6776059770479663 l 19.032547499034745 -4.590973119924482" fill="#ffeb16" stroke="none" /><path d="M 79.50377843672027 104.57218783832718 l -18.990954847971622 4.236400964247878 a40.45773520139426,40.45773520139426 0 0,0 -0.145774925002168,-0.681011918638718 l 19.061063811698233 -3.908875226192996" fill="#ffea16" stroke="none" /><path d="M 79.29508885075956 103.50808413554451 l -31.88997648205268 5.403197327107612 a53.34447621127193,53.34447621127193 0 0,0 -0.14560056147361744,-0.9066548352828198 l 31.978258797887587 -4.853463262131578" fill="#7cff26" stroke="none" /><path d="M 79.18660465613746 102.79330883721812 l -19.249910998680722 2.5834778814276063 a40.42249807365043,40.42249807365043 0 0,0 -0.08661673360887898,-0.6904205898271351 l 19.29152924153645 -2.2517395373130626" fill="#ffe915" stroke="none" /><path d="M 79.10278846688536 102.07522291339032 l -19.24895135857766 1.9115404394866748 a40.343632421463184,40.343632421463184 0 0,0 -0.06267749025711948,-0.6916408821562963 l 19.279003445111854 -1.5799181687818122" fill="#ffe815" stroke="none" /><path d="M 79.0235259727143 100.99374915477108 l -21.053601300109413 0.9974030177643856 a42.07721377421158,42.07721377421158 0 0,0 -0.02804720230490642,-0.72377366654768 l 21.06765063526552 -0.6348521042027087" fill="#fffe18" stroke="none" /><path d="M 79.0095281055655 100.63252640178507 l -16.17858194629815 0.4875250197300362 a37.1859258134327,37.1859258134327 0 0,0 -0.013772847617944891,-0.6399701094403484 l 16.1845768566011 -0.2089650944995589" fill="#ffc011" stroke="none" /><line stroke="#e1ed5e" stroke-width="0.3" x1="15.007084014347285" x2="10.007500721073583" y1="101.09737516637583" y2="101.16192664675087" /><path d="M 14.007167355692545 101.11028546245083 a86.0,86.0 0 0,1 10.666146001902534,-42.60595125391555" fill="none" id="id22" stroke="none" /><text fill="#e1ed5e" style="font-size:6.75px; font-family:Arial;" text-anchor="middle"><textPath startOffset="22.20632615414155" xlink:href="#id22">October</textPath></text><path d="M 79.00486145842228 99.54816195383935 l -27.207227385791956 -0.5855289041841648 a48.21352726347364,48.21352726347364 0 0,0 0.024998267438847043,-0.829570795153902 l 27.193117423897466 1.0537698467630612" fill="#b6ff1f" stroke="none" /><path d="M 79.05617556472873 98.46500227214037 l -21.927403478008575 -1.607085402221031 a42.98621720026923,42.98621720026923 0 0,0 0.060437631023102956,-0.7374921813876486 l 21.896491363165975 1.9842915008164579" fill="#f4ff19" stroke="none" /><path d="M 79.21141760316559 97.0276538004421 l -5.358526229183711 -0.7661607111301101 a26.41302185328391,26.41302185328391 0 0,0 0.06822622723807484,-0.44952559308432094 l 5.344544108506334 0.8582854166065231" fill="#ff2a04" stroke="none" /><path d="M 79.46518482838121 95.60439243477599 l -18.14522932676554 -3.884101543396924 a39.55628174285815,39.55628174285815 0 0,0 0.14825244773770282,-0.6645866538244163 l 18.0756824920258 4.1958663667713" fill="#ffde14" stroke="none" /><path d="M 79.54389044137918 95.25157060432595 l -19.099529246903174 -4.433529545764021 a40.60735070544902,40.60735070544902 0 0,0 0.16391292419656864,-0.6795248924324285 l 19.02038352244579 4.761639669855846" fill="#ffec16" stroke="none" /><path d="M 79.71946130924805 94.55025226153421 l -28.071162326744197 -7.543229286904511 a50.06699954328339,50.06699954328339 0 0,0 0.2308165673256098,-0.8303700006025985 l 27.937158988852225 8.025310590926052" fill="#a1ff22" stroke="none" /><path d="M 80.02781315780177 93.51064311812611 l -14.95732088195282 -4.859928157422213 a36.72705788318359,36.72705788318359 0 0,0 0.20053446898507576,-0.5995725377563855 l 14.87144911919597 5.116673798100921" fill="#ffba11" stroke="none" /><path d="M 81.6062741919709 89.86733742301443 l -9.731814236365375 -5.361023152576875 a32.11075054051656,32.11075054051656 0 0,0 0.27086543288654574,-0.4818393811279666 l 9.638091162186399 5.527746043639626" fill="#ff7b0b" stroke="none" /><line stroke="#e1ed5e" stroke-width="0.3" x1="26.266209847984243" x2="21.928928074336255" y1="57.711370442889674" y2="55.22380399835377" /><path d="M 25.398753493254645 57.213857153982495 a86.0,86.0 0 0,1 29.58750427330803,-30.492523968695096" fill="none" id="id23" stroke="none" /><text fill="#e1ed5e" style="font-size:6.75px; font-family:Arial;" text-anchor="middle"><textPath startOffset="21.46611528233685" xlink:href="#id23">November</textPath></text><path d="M 82.15384107792192 88.93136811851018 l -48.159933726962294 -29.86998940154117 a77.67094037894185,77.67094037894185 0 0,0 0.7144705835636531,-1.1301208827159335 l 47.638635547152674 30.694557931971318" fill="#45ffef" stroke="none" /><path d="M 83.39014120810768 87.1503855733568 l -21.43215263894985 -16.58020704413792 a48.09687126525359,48.09687126525359 0 0,0 0.512222333079574,-0.6504703460187201 l 21.143576225276306 16.946669784109687" fill="#b7ff1f" stroke="none" /><path d="M 87.80319425747018 82.90503203632743 l -7.585364177989937 -10.63159981005251 a34.06019388193918,34.06019388193918 0 0,0 0.4801982280088247,-0.33640954616728647 l 7.401234810397452 10.760594198983739" fill="#ff960d" stroke="none" /><line stroke="#e1ed5e" stroke-width="0.3" x1="56.762969772571076" x2="54.21961505331055" y1="26.818313649435495" y2="22.513508569990535" /><path d="M 56.25429882871897 25.957352633546506 a86.0,86.0 0 0,1 42.265352541879196,-11.944610805530505" fill="none" id="id24" stroke="none" /><text fill="#e1ed5e" style="font-size:6.75px; font-family:Arial;" text-anchor="middle"><textPath startOffset="22.20632615414155" xlink:href="#id24">December</textPath></text></svg>