<?xml version="1.0" encoding="utf-8" ?>
<svg baseProfile="full" height="200mm" version="1.1" viewBox="0,0,200,200" width="200mm" xmlns="http://www.w3.org/2000/svg" xmlns:ev="http://www.w3.org/2001/xml-events" xmlns:xlink="http://www.w3.org/1999/xlink"><defs /><rect fill="#1a1a1a" height="200" width="200" x="0" y="0" /><text alignment-baseline="middle" fill="#e1ed5e" style="dominant-baseline: central; font-size:9.0px; font-family:Arial;" text-anchor="middle" x="100.0" y="100.0">2024</text><line stroke="#e1ed5e" stroke-width="0.3" x1="100.0" x2="100.0" y1="15.0" y2="10.0" /><path d="M 100.0 14.0 a86.0,86.0 0 0,1 42.35913384403234,11.155469271406648" fill="none" id="id73" stroke="none" /><text fill="#e1ed5e" style="font-size:6.75px; font-family:Arial;" text-anchor="middle"><textPath startOffset="22.145653131862478" xlink:href="#id73">January</textPath></text><path d="M 101.80034050326958 79.07731436759882 l 1.4298118151875054 -16.61658062368303 a37.67798289512878,37.67798289512878 0 0,0 0.6439354529444635,0.06098135689100683 l -1.7148468315169818 16.58958751128684" fill="#ff3304" stroke="none" /><path d="M 106.38641147887787 79.99465700312896 l 8.862090730006514 -27.76037299029816 a50.1406067312838,50.1406067312838 0 0,0 0.8177151298100599,0.26879920505483457 l -9.337328597464316 27.6041528638413" fill="#fcff18" stroke="none" /><path d="M 107.06938296918511 80.22567764915836 l 20.929880347252553 -58.54460036401515 a83.17338757967553,83.17338757967553 0 0,0 1.3403226976494422,0.4921850599807045 l -21.93179219655612 58.17668445502573" fill="#4cdbff" stroke="none" /><path d="M 109.06512990194946 81.05736502329252 l 12.205378740618562 -25.504547285779445 a49.27460348889977,49.27460348889977 0 0,0 0.7598607291217039,0.3716859597201427 l -12.641399719002333 25.29126757596208" fill="#fff417" stroke="none" /><line stroke="#e1ed5e" stroke-width="0.3" x1="143.13028292997686" x2="145.6673583964461" y1="26.7553504044142" y2="22.446841604673864" /><path d="M 143.63769802327073 25.89364864446614 a86.0,86.0 0 0,1 29.32050498858742,28.57503671076993" fill="none" id="id74" stroke="none" /><text fill="#e1ed5e" style="font-size:6.75px; font-family:Arial;" text-anchor="middle"><textPath startOffset="20.669276256404974" xlink:href="#id74">February</textPath></text><path d="M 116.1254893667686 86.54754324733833 l 22.057900698503495 -18.401485279115384 a49.7256965747141,49.7256965747141 0 0,0 0.5411888627488471,0.6601624164753925 l -22.37053638049097 18.020120580941498" fill="#fffb17" stroke="none" /><path d="M 117.42321728460499 88.27688183743584 l 23.597456457673832 -15.877421825744321 a49.44173825743488,49.44173825743488 0 0,0 0.4677554804300268,0.7082414151299988 l -23.866536377024584 15.470000532275265" fill="#fff717" stroke="none" /><line stroke="#e1ed5e" stroke-width="0.3" x1="172.87174338648825" x2="177.1583165268699" y1="56.24261187166439" y2="53.66864786411523" /><path d="M 173.72905801456457 55.72781907015455 a86.0,86.0 0 0,1 12.242430191666344,42.057860355516425" fill="none" id="id75" stroke="none" /><text fill="#e1ed5e" style="font-size:6.75px; font-family:Arial;" text-anchor="middle"><textPath startOffset="22.145653131862474" xlink:href="#id75">March</textPath></text><path d="M 118.36410011445183 89.81374322990088 l 24.566059095653937 -13.626378870633243 a49.09216012728821,49.09216012728821 0 0,0 0.4024496982543326,0.7404621159337783 l -24.79635414352361 13.20266192122486" fill="#fff216" stroke="none" /><path d="M 118.70294669586156 90.45014215332178 l 25.476693234235672 -13.008581094027011 a49.605682656270005,49.605682656270005 0 0,0 0.38073563027279206,0.7617263052332107 l -25.6962487777202 12.56932293263005" fill="#fffa17" stroke="none" /><path d="M 119.71291397450082 92.76114493625339 l 26.67856946892265 -9.79674024568033 a49.42045369710808,49.42045369710808 0 0,0 0.2856027550967721,0.7988817366649369 l -26.842812394063365 9.337323552634475" fill="#fff717" stroke="none" /><path d="M 119.83427380445688 93.10060997987247 l 26.79924698050306 -9.322169240331235 a49.37432779939254,49.37432779939254 0 0,0 0.2715930790902233,0.8029166794026859 l -26.955325481165648 8.860750886454388" fill="#fff617" stroke="none" /><path d="M 120.16314734710363 94.1308016681162 l 28.298589597087272 -8.23730700364827 a50.47309620411009,50.47309620411009 0 0,0 0.2350159741191702,0.8339887828051004 l -28.43582406328102 7.750310296940158" fill="#f7ff18" stroke="none" /><path d="M 120.26092885502905 94.47779374421319 l 27.707337756948522 -7.551758114714523 a49.71803642662189,49.71803642662189 0 0,0 0.21736374941416614,0.8253655610773215 l -27.83289098716742 7.075012049264402" fill="#fffb17" stroke="none" /><path d="M 120.9064616781168 98.02013634271609 l 28.511939135426356 -2.700110279876229 a49.639505386541686,49.639505386541686 0 0,0 0.07305606107495169,0.8490221692156299 l -28.55408881919905 2.2102670632849373" fill="#fffa17" stroke="none" /><path d="M 120.98066250479742 99.09900007780936 l 42.44077309776567 -1.8225894082254945 a63.479889986757335,63.479889986757335 0 0,0 0.037408738475798474,1.0891146042089295 l -42.465806523238314 1.0937685394524452" fill="#43ff2d" stroke="none" /><path d="M 120.99303781780057 99.45929381324524 l 13.847123059583685 -0.35665277088782266 a34.85171535320576,34.85171535320576 0 0,0 0.010270582112720724,0.5982099182300599 l -13.851205073295072 0.11889593668869645" fill="#ff0000" stroke="none" /><line stroke="#e1ed5e" stroke-width="0.3" x1="184.99686870605535" x2="189.99668451229388" y1="99.2704041080226" y2="99.22748670261217" /><path d="M 185.99683186730306 99.26182062694052 a86.0,86.0 0 0,1 -10.086455211305974,41.156179273409016" fill="none" id="id76" stroke="none" /><text fill="#e1ed5e" style="font-size:6.75px; font-family:Arial;" text-anchor="middle"><textPath startOffset="21.40746469413373" xlink:href="#id76">April</textPath></text><path d="M 120.99922638620191 99.81974689727618 l 28.61950870703403 -0.24566406152296133 a49.620563052866736,49.620563052866736 0 0,0 0.0,0.851834328493573 l -28.61950870703403 -0.24566406152295786" fill="#fffa17" stroke="none" /><path d="M 120.99303781780057 100.54070618675476 l 28.863265724121312 0.7434153400012277 a49.8728380078749,49.8728380078749 0 0,0 -0.029390094319193195,0.8556605286974401 l -28.846250942805273 -1.2387821332627784" fill="#fffe18" stroke="none" /><path d="M 120.93736805541906 101.62068470465957 l 37.06370309319668 2.8689650266543576 a58.174575280758795,58.174575280758795 0 0,0 -0.0856173987155149,0.9950039532718533 l -37.008992071783425 -3.504790027301868" fill="#88ff25" stroke="none" /><path d="M 120.86939407059847 102.33845913500097 l 29.02798573270267 3.252646347933479 a50.20965018555879,50.20965018555879 0 0,0 -0.1033312538405687,0.8557310133750116 l -28.96787239260244 -3.750471038231899" fill="#fbff18" stroke="none" /><line stroke="#e1ed5e" stroke-width="0.3" x1="174.33088141563837" x2="178.70328620479359" y1="141.23008692659167" y2="143.65538615756765" /><path d="M 175.20536237346943 141.71514677278685 a86.0,86.0 0 0,1 -30.301960400862466,31.631185727798858" fill="none" id="id77" stroke="none" /><text fill="#e1ed5e" style="font-size:6.75px; font-family:Arial;" text-anchor="middle"><textPath startOffset="22.145653131862474" xlink:href="#id77">May</textPath></text><path d="M 115.6541949942343 113.99807769240083 l 16.196280238486434 14.48281366047458 a42.72720380278179,42.72720380278179 0 0,0 -0.49360561329297314,0.542559035985298 l -15.945276924351584 -14.758710272017549" fill="#ff8b0c" stroke="none" /><path d="M 115.41159269507618 114.26474011684316 l 21.162979176657434 19.588137580980195 a49.8369003452702,49.8369003452702 0 0,0 -0.5865190088095668,0.6228628621672001 l -20.823604334111604 -19.948541903091893" fill="#fffd17" stroke="none" /><path d="M 114.13192950727249 115.5334660781643 l 13.723812546578193 15.084874046792644 a41.393539560880924,41.393539560880924 0 0,0 -0.5297091306466086,0.4736691709727881 l -13.462838389108207 -15.318238747648818" fill="#ff740a" stroke="none" /><path d="M 113.86319453409587 115.77377054828091 l 23.34757366092929 26.565252971154674 a56.36696002307749,56.36696002307749 0 0,0 -0.7322887313182058,0.6325335649792811 l -22.888105449848226 -26.96213066859867" fill="#a1ff22" stroke="none" /><path d="M 112.7482090630111 116.68781488649013 l 22.714868585820593 29.734492135916557 a58.417980670420775,58.417980670420775 0 0,0 -0.8021261961992598,0.6019304515589344 l -22.20108940071057 -30.120041614739506" fill="#85ff25" stroke="none" /><path d="M 111.8722381534696 117.32195027204791 l 16.339404989846827 23.839680189220616 a49.90166962212649,49.90166962212649 0 0,0 -0.7107511721016687,0.47822510840699106 l -15.927757529648156 -24.116654971684728" fill="#fffe18" stroke="none" /><path d="M 111.5731344415666 117.5232005979908 l 34.719403324699805 52.56960179397238 a84.0,84.0 0 0,0 -1.2100574709719614,0.7843446331844213 l -33.81186022147083 -53.157860268860695" fill="#4dd2ff" stroke="none" /><line stroke="#e1ed5e" stroke-width="0.3" x1="143.1302829299769" x2="145.66735839644613" y1="173.24464959558577" y2="177.55315839532614" /><path d="M 143.63769802327073 174.10635135553383 a86.0,86.0 0 0,1 -40.68552437913181,11.842963189579606" fill="none" id="id78" stroke="none" /><text fill="#e1ed5e" style="font-size:6.75px; font-family:Arial;" text-anchor="middle"><textPath startOffset="21.407464694133747" xlink:href="#id78">June</textPath></text><path d="M 110.65571695917076 118.09573695890943 l 14.1448518626156 24.021050822707956 a48.87629309722615,48.87629309722615 0 0,0 -0.7266450880008007,0.4195287371625832 l -13.7304143067544 -24.26032645714671" fill="#ffee16" stroke="none" /><path d="M 109.3889696526874 118.78422872680471 l 12.420548883089461 24.849417962026436 a48.78063367903434,48.78063367903434 0 0,0 -0.7522432500693705,0.3679598689989005 l -11.99214538375802 -25.05897158112256" fill="#ffed16" stroke="none" /><path d="M 109.06512990194946 118.94263497670748 l 12.058326362073805 25.197264372091578 a48.933946489734666,48.933946489734666 0 0,0 -0.7608326573193409,0.35610810031843393 l -11.624004990882957 -25.400548703980544" fill="#ffef16" stroke="none" /><path d="M 108.4095320186766 119.2426549942271 l 16.752293349751323 38.33252558827634 a62.83326248874193,62.83326248874193 0 0,0 -0.9920621882798232,0.42345235651246843 l -16.091796086301066 -38.61445259444821" fill="#4bff2c" stroke="none" /><path d="M 108.07796709384702 119.3841803445677 l 6.9508675965739535 16.679551857277335 a39.069920046992614,39.069920046992614 0 0,0 -0.6212964524447306,0.25267585841951484 l -6.6635166829387815 -16.79641497227614" fill="#ff4c07" stroke="none" /><path d="M 107.74402155503746 119.51999308798841 l 15.60317630831133 39.330197046104175 a63.312214673704204,63.312214673704204 0 0,0 -1.0136820331554064,0.39211398679477893 l -14.925722012662394 -39.59225092103699" fill="#45ff2d" stroke="none" /><path d="M 107.06938296918513 119.77432235084164 l 9.869406568965996 27.60648669861827 a50.31762769844342,50.31762769844342 0 0,0 -0.815850561700358,0.2837951759063689 l -9.394050235220616 -27.77184030709323" fill="#faff18" stroke="none" /><path d="M 106.38641147887787 120.00534299687104 l 8.470286311588369 26.533051230015683 a48.852263063796414,48.852263063796414 0 0,0 -0.8010825900684694,0.24817743414348742 l -8.013563088648276 -26.674545251965814" fill="#ffee16" stroke="none" /><path d="M 103.94208987418118 120.62667999033965 l 5.278605349913842 27.619893717056243 a49.119783131838375,49.119783131838375 0 0,0 -0.8295752843984641,0.1511762514241008 l -4.803695331964321 -27.706438142411706" fill="#fff216" stroke="none" /><path d="M 103.2317021107853 120.74984581791261 l 4.884298022770929 31.360697065177373 a52.738772622599456,52.738772622599456 0 0,0 -0.8957426740736166,0.1316433264957594 l -4.345230243089627 -31.439921464972013" fill="#d5ff1c" stroke="none" /><path d="M 102.875027216393 120.80226474461374 l 3.827124807052278 27.69116862374004 a48.95438613236141,48.95438613236141 0 0,0 -0.8334418456210415,0.10790573300269252 l -3.3512051395404607 -27.752785952943125" fill="#ffef16" stroke="none" /><path d="M 102.51750503828377 120.84855314841334 l 3.304499169771445 27.365993522235087 a48.56478398649322,48.56478398649322 0 0,0 -0.8285246928034731,0.0928379199657624 l -2.8342385753671726 -27.41868720270782" fill="#ffe915" stroke="none" /><path d="M 102.15924093988457 120.88869738790638 l 2.050103845354335 19.832894999517425 a40.93857191071166,40.93857191071166 0 0,0 -0.6996605396737317,0.06625858054142318 l -1.709343742295588 -19.865165335564033" fill="#ff6c0a" stroke="none" /><line stroke="#e1ed5e" stroke-width="0.3" x1="101.45913802915013" x2="101.54496967792366" y1="184.9874750549273" y2="189.98673829345242" /><path d="M 101.47630435890484 185.9873277026323 a86.0,86.0 0 0,1 -42.54439059252881,-10.42667462771756" fill="none" id="id79" stroke="none" /><text fill="#e1ed5e" style="font-size:6.75px; font-family:Arial;" text-anchor="middle"><textPath startOffset="22.145653131862474" xlink:href="#id79">July</textPath></text><line stroke="#e1ed5e" stroke-width="0.3" x1="58.13341422392154" x2="55.67067388415222" y1="173.97424548756322" y2="178.32567169271397" /><path d="M 57.64086615596768 174.84453072859336 a86.0,86.0 0 0,1 -31.369924170532247,-30.572349798747897" fill="none" id="id80" stroke="none" /><text fill="#e1ed5e" style="font-size:6.75px; font-family:Arial;" text-anchor="middle"><textPath startOffset="22.145653131862474" xlink:href="#id80">August</textPath></text><line stroke="#e1ed5e" stroke-width="0.3" x1="26.387840678322732" x2="22.057713659400548" y1="142.50000000000003" y2="145.00000000000006" /><path d="M 25.521815274538298 143.00000000000003 a86.0,86.0 0 0,1 -11.493303480769221,-40.785679425670985" fill="none" id="id81" stroke="none" /><text fill="#e1ed5e" style="font-size:6.75px; font-family:Arial;" text-anchor="middle"><textPath startOffset="21.40746469413373" xlink:href="#id81">September</textPath></text><line stroke="#e1ed5e" stroke-width="0.3" x1="15.003131293944662" x2="10.003315487706104" y1="100.72959589197737" y2="100.7725132973878" /><path d="M 14.003168132696942 100.73817937305945 a86.0,86.0 0 0,1 10.791469493833604,-42.45332614584628" fill="none" id="id82" stroke="none" /><text fill="#e1ed5e" style="font-size:6.75px; font-family:Arial;" text-anchor="middle"><textPath startOffset="22.145653131862435" xlink:href="#id82">October</textPath></text><line stroke="#e1ed5e" stroke-width="0.3" x1="26.387840678322718" x2="22.05771365940052" y1="57.49999999999999" y2="54.99999999999999" /><path d="M 25.521815274538284 56.99999999999999 a86.0,86.0 0 0,1 29.574782752854787,-30.34633250058573" fill="none" id="id83" stroke="none" /><text fill="#e1ed5e" style="font-size:6.75px; font-family:Arial;" text-anchor="middle"><textPath startOffset="21.40746469413373" xlink:href="#id83">November</textPath></text><line stroke="#e1ed5e" stroke-width="0.3" x1="56.869717070023135" x2="54.33264160355391" y1="26.7553504044142" y2="22.446841604673864" /><path d="M 56.362301976729285 25.89364864446614 a86.0,86.0 0 0,1 42.16139366436587,-11.88097634709845" fill="none" id="id84" stroke="none" /><text fill="#e1ed5e" style="font-size:6.75px; font-family:Arial;" text-anchor="middle"><textPath startOffset="22.145653131862474" xlink:href="#id84">December</textPath></text></svg>