<?xml version="1.0" encoding="utf-8" ?>
<svg baseProfile="full" height="200mm" version="1.1" viewBox="0,0,200,200" width="200mm" xmlns="http://www.w3.org/2000/svg" xmlns:ev="http://www.w3.org/2001/xml-events" xmlns:xlink="http://www.w3.org/1999/xlink"><defs /><rect fill="#1a1a1a" height="200" width="200" x="0" y="0" /><text alignment-baseline="middle" fill="#e1ed5e" style="dominant-baseline: central; font-size:9.0px; font-family:Arial;" text-anchor="middle" x="100.0" y="100.0">2023</text><line stroke="#e1ed5e" stroke-width="0.3" x1="100.0" x2="100.0" y1="15.0" y2="10.0" /><path d="M 100.0 14.0 a86.0,86.0 0 0,1 42.46469731375804,11.215312516191453" fill="none" id="id61" stroke="none" /><text fill="#e1ed5e" style="font-size:6.75px; font-family:Arial;" text-anchor="middle"><textPath startOffset="22.20632615414155" xlink:href="#id61">January</textPath></text><path d="M 107.4271985657038 80.35727306442388 l 4.156595097468326 -10.99295538675124 a32.75254657252635,32.75254657252635 0 0,0 0.5256266468606587,0.20393497288202306 l -4.345204909328651 10.91977770997867" fill="#ff750a" stroke="none" /><path d="M 107.76421540070413 80.48803036053334 l 4.471878099347566 -11.238115534243477 a33.09516161514301,33.09516161514301 0 0,0 0.5274992586270286,0.21518019231156427 l -4.664661227562982 11.159474455748333" fill="#ff7a0b" stroke="none" /><path d="M 108.09893153111575 80.62456947434976 l 8.63702305420901 -20.662730570363482 a43.395236142143524,43.395236142143524 0 0,0 0.6867115145028111,0.29401403249858765 l -8.991418326502135 20.510997009902106" fill="#faff18" stroke="none" /><path d="M 109.73455568895987 81.39251694778311 l 4.792597472032206 -9.160990915905424 a31.33889477121376,31.33889477121376 0 0,0 0.47583627781569127,0.2541752603552689 l -4.949578796376208 9.077136929048402" fill="#ff6109" stroke="none" /><line stroke="#e1ed5e" stroke-width="0.3" x1="143.23703022742887" x2="145.7803849466894" y1="26.81831364943548" y2="22.513508569990506" /><path d="M 143.74570117128098 25.957352633546492 a86.0,86.0 0 0,1 28.547481713284135,27.462654790039103" fill="none" id="id62" stroke="none" /><text fill="#e1ed5e" style="font-size:6.75px; font-family:Arial;" text-anchor="middle"><textPath startOffset="19.985693538727396" xlink:href="#id62">February</textPath></text><path d="M 110.68208982089419 81.91981866633111 l 11.759164701232013 -19.90320561758352 a44.117429535450285,44.117429535450285 0 0,0 0.6504966535783714,0.39191695532423376 l -12.100023421028022 19.69784205280067" fill="#f1ff19" stroke="none" /><path d="M 112.77801427241765 83.33499621200491 l 13.96031942299602 -18.206958538780235 a43.94305685005689,43.94305685005689 0 0,0 0.5963019347164098,0.4654231184307186 l -14.27165391287186 17.96395703112629" fill="#f3ff19" stroke="none" /><path d="M 114.42810811169701 84.74124197986012 l 14.24316292911243 -15.063165239284512 a41.73081371416066,41.73081371416066 0 0,0 0.5176941062013118,0.4980213199971592 l -14.500340278926158 14.81576083252505" fill="#ffef16" stroke="none" /><path d="M 114.94478906791727 85.2469230424477 l 14.74836056711395 -14.559168246239063 a41.723984159420155,41.723984159420155 0 0,0 0.5001627558862594,0.5154616854882598 l -14.996787586703318 14.303142365200689" fill="#ffef16" stroke="none" /><path d="M 115.68641384162765 86.03803664274999 l 22.067852460379207 -19.641872931298604 a50.5430750678115,50.5430750678115 0 0,0 0.5728411002826066,0.6548564032199119 l -22.40268542423966 19.259100971875746" fill="#a3ff21" stroke="none" /><path d="M 116.15771136456269 86.58626213691792 l 15.696675360560643 -13.030997017946685 a41.40079656916776,41.40079656916776 0 0,0 0.45048306882346056,0.5522389766599293 l -15.918656921460514 12.758873871678654" fill="#ffeb16" stroke="none" /><path d="M 117.04232023915458 87.72973835380427 l 25.08445767334049 -18.060502008268735 a51.90973551417562,51.90973551417562 0 0,0 0.5158527005298404,0.7296370618366772 l -25.391622993674215 17.626038446100264" fill="#93ff23" stroke="none" /><path d="M 117.2510076193507 88.02491185347247 l 21.52822446430881 -14.944192900891647 a47.206742453893895,47.206742453893895 0 0,0 0.4576256104328542,0.6715091152758099 l -21.7822745404104 14.571405762345432" fill="#cbff1d" stroke="none" /><line stroke="#e1ed5e" stroke-width="0.3" x1="172.23445277983987" x2="176.4835382374775" y1="55.19839476539836" y2="52.563006222186495" /><path d="M 173.08426987136738 54.67131705675599 a86.0,86.0 0 0,1 12.851231095245387,41.99856678651699" fill="none" id="id63" stroke="none" /><text fill="#e1ed5e" style="font-size:6.75px; font-family:Arial;" text-anchor="middle"><textPath startOffset="22.20632615414155" xlink:href="#id63">March</textPath></text><line stroke="#e1ed5e" stroke-width="0.3" x1="184.98032266829074" x2="189.97916517819016" y1="98.17113171792111" y2="98.06355123074" /><path d="M 185.9800911702706 98.14961562048488 a86.0,86.0 0 0,1 -9.607161424134198,41.387399972396054" fill="none" id="id64" stroke="none" /><text fill="#e1ed5e" style="font-size:6.75px; font-family:Arial;" text-anchor="middle"><textPath startOffset="21.466115282336823" xlink:href="#id64">April</textPath></text><path d="M 120.8583938346157 102.4346265915055 l 19.833542565019947 2.3150042383617495 a40.96819108737922,40.96819108737922 0 0,0 -0.08778603656279967,0.6997410848573481 l -19.790755019210298 -2.6560630775064924" fill="#ffe515" stroke="none" /><path d="M 120.76222939487914 103.15116336523771 l 20.4387071539694 3.10206115111585 a41.67277275817112,41.67277275817112 0 0,0 -0.11374334406662193,0.7082799120793553 l -20.382282055541488 -3.4534202928884103" fill="#ffee16" stroke="none" /><path d="M 120.64145759157962 103.86396538481128 l 20.280132450284327 3.796327339754007 a41.632398635923046,41.632398635923046 0 0,0 -0.137922322070716,0.7032629488251864 l -20.21178019523795 -4.144854015647138" fill="#ffee16" stroke="none" /><path d="M 120.32669344350535 105.2749913415812 l 7.130976286787129 1.8505635594087129 a28.3671845565407,28.3671845565407 0 0,0 -0.12672286438175773,0.4715829204271868 l -7.098065346063594 -1.9730374130114479" fill="#ff3605" stroke="none" /><path d="M 120.13307415673323 105.97154293290107 l 19.499925079366903 5.783748616494844 a41.33958765953057,41.33958765953057 0 0,0 -0.2082200766673427,0.6804752580818835 l -19.39747823019343 -6.118550847128785" fill="#ffea16" stroke="none" /><line stroke="#e1ed5e" stroke-width="0.3" x1="174.80103733775053" x2="179.2010983576182" y1="140.37084112569926" y2="142.7455964860345" /><path d="M 175.68104954172406 140.8457921977663 a86.0,86.0 0 0,1 -30.038265399797805,32.042727171017184" fill="none" id="id65" stroke="none" /><text fill="#e1ed5e" style="font-size:6.75px; font-family:Arial;" text-anchor="middle"><textPath startOffset="22.206326154141568" xlink:href="#id65">May</textPath></text><path d="M 117.55443506779139 111.5257021239791 l 13.06574728335203 8.578567788342472 a36.63027758459868,36.63027758459868 0 0,0 -0.35059866868798134,0.5240974398364944 l -12.916145509253328 -8.802202142384772" fill="#ffab0f" stroke="none" /><path d="M 117.14729908036423 112.12312394758627 l 16.497938017308726 11.66402630093864 a41.2047387602995,41.2047387602995 0 0,0 -0.41444159409807174,0.5756231261160519 l -16.29471663083505 -11.946283032505821" fill="#ffe815" stroke="none" /><path d="M 116.71984013943494 112.70617746262583 l 16.41044034324999 12.471050291286796 a41.61139606206167,41.61139606206167 0 0,0 -0.4382931969031883,0.5665530395148843 l -16.193340329128734 -12.751681324914934" fill="#ffed16" stroke="none" /><path d="M 116.0416608686014 113.55231037782055 l 12.51523160061234 10.573113625272264 a37.38358183517523,37.38358183517523 0 0,0 -0.41951052754918167,0.4879855188757449 l -12.331378563492379 -10.786976243309537" fill="#ffb510" stroke="none" /><path d="M 115.56566222782051 114.09645910891815 l 15.367246259749841 13.916771117522222 a41.732312363682354,41.732312363682354 0 0,0 -0.48678475314897784,0.5283087083868426 l -15.125415098605142 -14.1792310807104" fill="#ffef16" stroke="none" /><path d="M 115.32070863581623 114.36230785411682 l 16.575003367948167 15.538139045146847 a43.71925398497517,43.71925398497517 0 0,0 -0.519412735611924,0.544602176704351 l -16.30508408095728 -15.821148338433705" fill="#f6ff19" stroke="none" /><path d="M 114.81725581225074 114.88116024355365 l 4.667736486528959 4.687867680146935 a27.61542646351994,27.61542646351994 0 0,0 -0.3397355591434823,0.3325027494785856 l -4.586350975009683 -4.767520532548093" fill="#ff2b04" stroke="none" /><path d="M 114.0293411484842 115.62618273729858 l 16.764151265135652 18.67227322596173 a46.093635748239365,46.093635748239365 0 0,0 -0.5949539262808837,0.5249776658360193 l -16.44025498594818 -18.95807403357004" fill="#d8ff1c" stroke="none" /><path d="M 113.48314897796784 116.09983520530334 l 13.286560935005019 15.865095153094 a41.6938141891805,41.6938141891805 0 0,0 -0.5541899521479755,0.45606060155793315 l -13.011500854312352 -16.09145087350911" fill="#ffee16" stroke="none" /><path d="M 112.92097659922987 116.55440617244103 l 12.636383555448417 16.189784442463562 a41.53746112969766,41.53746112969766 0 0,0 -0.567424013782307,0.4350765375670606 l -12.355830813172615 -16.404900321857994" fill="#ffec16" stroke="none" /><path d="M 112.63410532772338 116.77436683061366 l 12.703124866760875 16.866004428707324 a42.11472203865572,42.11472203865572 0 0,0 -0.582817675765613,0.4311545833286177 l -12.410922220576698 -17.08216896077571" fill="#fff417" stroke="none" /><path d="M 112.04921762599082 117.19931262002967 l 11.725497530865805 16.73722758760143 a41.43580386638868,41.43580386638868 0 0,0 -0.5876842338914469,0.4042145748614841 l -11.435656412351475 -16.93658295182801" fill="#ffeb16" stroke="none" /><line stroke="#e1ed5e" stroke-width="0.3" x1="143.8653032363475" x2="146.44561519142675" y1="172.8068346515853" y2="177.08958963109032" /><path d="M 144.38136562736335 173.6633856474863 a86.0,86.0 0 0,1 -40.68145358897372,12.25698825130547" fill="none" id="id66" stroke="none" /><text fill="#e1ed5e" style="font-size:6.75px; font-family:Arial;" text-anchor="middle"><textPath startOffset="21.466115282336833" xlink:href="#id66">June</textPath></text><path d="M 110.8373102113329 117.98757091392108 l 10.62706884308974 17.638616104418702 a41.59260474721028,41.59260474721028 0 0,0 -0.6164264249975846,0.36419559728279993 l -10.321874547063773 -17.81893027399525" fill="#ffed16" stroke="none" /><path d="M 109.2508944713604 118.85261126421891 l 8.903181569399973 18.143999119468184 a41.210674063597324,41.210674063597324 0 0,0 -0.6395255533570352,0.30701112951525233 l -8.589543348042705 -18.294564525482993" fill="#ffe815" stroke="none" /><path d="M 108.92500713936063 119.00905698771935 l 6.2245860121618275 13.257525555169627 a35.64607301868922,35.64607301868922 0 0,0 -0.5576607529452802,0.2559947001444775 l -5.995457263449127 -13.362707325648179" fill="#ff9e0e" stroke="none" /><path d="M 108.59647513512805 119.15986991738527 l 8.469823254171189 18.87758752538375 a41.690606968753315,41.690606968753315 0 0,0 -0.6572808584915998,0.28813261265882567 l -8.143621721021836 -19.020584691337028" fill="#ffee16" stroke="none" /><path d="M 107.59598834532513 119.57807347666477 l 7.221290190737721 18.612317913519693 a40.96410303852319,40.96410303852319 0 0,0 -0.6595801484366287,0.24939677410892708 l -6.899839821540818 -18.733862937735253" fill="#ffe515" stroke="none" /><path d="M 107.2578585660854 119.70592522655815 l 4.676391181281906 12.696942784072542 a34.53074242391684,34.53074242391684 0 0,0 -0.559530295418661,0.2006276568027553 l -4.45714132523351 -12.775557981915258" fill="#ff8e0d" stroke="none" /><path d="M 106.91757812671514 119.82793768551818 l 6.762441429724679 19.38326749830562 a41.52904461978998,41.52904461978998 0 0,0 -0.6769832826454534,0.22966948567223722 l -6.4277884141419985 -19.496799970875983" fill="#ffec16" stroke="none" /><path d="M 106.2309692047433 120.05430185196036 l 6.2580211941411 20.141368364930187 a42.09117229738854,42.09117229738854 0 0,0 -0.6937527660606487,0.20902201747335583 l -5.910393453640205 -20.24610575150927" fill="#fff316" stroke="none" /><path d="M 105.18746579009965 120.34920634021253 l 5.04828460537429 19.803231337918145 a41.43656401844406,41.43656401844406 0 0,0 -0.6926747471524969,0.1702426001572141 l -4.706656573478582 -19.88719519638939" fill="#ffeb16" stroke="none" /><path d="M 104.13013068566511 120.58985236759428 l 2.6722409526750677 13.321865794025998 a34.58723591990636,34.58723591990636 0 0,0 -0.5847423273340756,0.11206725873204415 l -2.442531010769288 -13.36589025110651" fill="#ff8f0d" stroke="none" /><path d="M 102.70371172650421 120.8252237178851 l 2.6740306158729203 20.596606235099284 a41.7694638384903,41.7694638384903 0 0,0 -0.7138054821657713,0.08643190316796048 l -2.3190977106557686 -20.639583666992596" fill="#ffef16" stroke="none" /><path d="M 100.90346689309514 120.98055641714683 l 0.1755744621138527 4.077238397934274 a25.081016949895726,25.081016949895726 0 0,0 -0.43148861825240065,0.014861340456481475 l -0.10536549218679978 -4.07965653681685" fill="#ff0400" stroke="none" /><line stroke="#e1ed5e" stroke-width="0.3" x1="102.19456741930631" x2="102.32365962044197" y1="184.97166512339345" y2="189.96999836594603" /><path d="M 102.22038585953345 185.97133177190398 a86.0,86.0 0 0,1 -42.740103519485714,-10.115201625700543" fill="none" id="id67" stroke="none" /><text fill="#e1ed5e" style="font-size:6.75px; font-family:Arial;" text-anchor="middle"><textPath startOffset="22.20632615414155" xlink:href="#id67">July</textPath></text><path d="M 100.54218724476979 120.99299961872073 l 1.1608155541369702 44.94572810496355 a65.96071582655281,65.96071582655281 0 0,0 -1.1352791230119454,0.019544859662553232 l -0.38697674123235676 -44.95905044190526" fill="#36ff6a" stroke="none" /><path d="M 100.18074693466247 120.99922214144158 l 0.03848499695191761 4.471196159510066 a25.471361782701994,25.471361782701994 0 0,0 -0.43846386322874303,0.0 l 0.03848499695191453 -4.471196159510066" fill="#ff0a01" stroke="none" /><path d="M 99.09653310690486 120.98055641714683 l -0.8705174110476088 20.21539449223594 a41.23412896666571,41.23412896666571 0 0,0 -0.7088577402639664,-0.03663984831001288 l 1.2183632197250642 -20.197414837163727" fill="#ffe815" stroke="none" /><path d="M 98.37488393609728 120.93702456842531 l -0.6232541323633937 8.02963392677787 a29.05378586203844,29.05378586203844 0 0,0 -0.4982802890158859,-0.04299371999040201 l 0.7613787391208213 -8.017715954508803" fill="#ff4006" stroke="none" /><path d="M 96.22490169976321 120.6578951692458 l -1.8416311984218343 10.077677774648789 a31.244569039283732,31.244569039283732 0 0,0 -0.5282301846522032,-0.10123657208702747 l 2.0148289976457323 -10.044484004213293" fill="#ff6008" stroke="none" /><path d="M 95.86986931433489 120.58985236759428 l -2.148160070291857 10.709176555304955 a31.922502194107796,31.922502194107796 0 0,0 -0.537831135657832,-0.1127077437112838 l 2.332182667379076 -10.67061283086713" fill="#ff6a09" stroke="none" /><path d="M 95.51606077576429 120.51570834832081 l -5.204051211221981 23.810491520958088 a45.37255947738436,45.37255947738436 0 0,0 -0.7615672850596139,-0.1733302346293552 l 5.613138645674458 -23.717384552751046" fill="#e1ff1b" stroke="none" /><path d="M 95.16358092515715 120.4354850818985 l -1.0836219093271984 4.57866430096194 a25.705146461405555,25.705146461405555 0 0,0 -0.42970034430814785,-0.10560989007350652 l 1.1622755383785568 -4.559333152574403" fill="#ff0e01" stroke="none" /><path d="M 94.46302465271185 120.25689768951611 l -2.2743042966994635 8.320490261101098 a29.625718417561743,29.625718417561743 0 0,0 -0.4907554314275633,-0.13869238694493743 l 2.4171908962316406 -8.280109080817638" fill="#ff4806" stroke="none" /><path d="M 93.76903079525671 120.05430185196036 l -4.332271930980772 13.943366778722982 a35.60089234293437,35.60089234293437 0 0,0 -0.5836489204470326,-0.18686595330170977 l 4.571642196518745 -13.866727978761567" fill="#ff9d0e" stroke="none" /><path d="M 93.42475214034765 119.94407469862007 l -4.410031302952441 13.376529007985807 a35.0847401252031,35.0847401252031 0 0,0 -0.5719318312804194,-0.19403032969507908 l 4.639632867170086 -13.298635691392604" fill="#ff960d" stroke="none" /><path d="M 93.08242187328487 119.8279376855182 l -2.4477756271284408 7.016088826723509 a28.430821485222108,28.430821485222108 0 0,0 -0.4606882107928184,-0.1651864018888547 l 2.568183398550986 -6.972914883794696" fill="#ff3705" stroke="none" /><path d="M 92.7421414339146 119.70592522655815 l -3.4911852622163266 9.478971669518648 a31.10144932406502,31.10144932406502 0 0,0 -0.5007774378086358,-0.1893511771572182 l 3.6538329207852454 -9.417472242254798" fill="#ff5e08" stroke="none" /><path d="M 92.40401165467489 119.57807347666478 l -4.451734520184444 11.474002009023055 a33.307341806469296,33.307341806469296 0 0,0 -0.532725434564902,-0.2119824446133507 l 4.648581030791204 -11.395672720003637" fill="#ff7d0b" stroke="none" /><path d="M 92.06813273071674 119.44442032107085 l -3.087913289626423 7.5698044205853625 a29.1753989168826,29.1753989168826 0 0,0 -0.463372772348913,-0.1936898564224909 l 3.2177575214727985 -7.5155295211428985" fill="#ff4206" stroke="none" /><path d="M 91.7346041902142 119.30500536409082 l -3.342280699732543 7.806371082706337 a29.491776596020316,29.491776596020316 0 0,0 -0.46495797612166484,-0.20382391287636323 l 3.476159350511951 -7.747682616535522" fill="#ff4606" stroke="none" /><path d="M 91.40352486487194 119.15986991738527 l -1.5531309602398293 3.461626619643045 a24.794084162677052,24.794084162677052 0 0,0 -0.3878881030035988,-0.17806040337889786 l 1.6124870590108475 -3.4343791459300728" fill="#ff0000" stroke="none" /><path d="M 91.07499286063937 119.00905698771935 l -6.438191234486487 13.712475762003269 a36.14867313976197,36.14867313976197 0 0,0 -0.5609711735642067,-0.2693002534728999 l 6.673275076050936 -13.599621232030806" fill="#ffa50f" stroke="none" /><line stroke="#e1ed5e" stroke-width="0.3" x1="58.666819895761336" x2="56.23545636021788" y1="174.27360380694188" y2="178.64263932499728" /><path d="M 58.180547188652646 175.14741091055294 a86.0,86.0 0 0,1 -31.652253787137756,-30.449443065178592" fill="none" id="id68" stroke="none" /><text fill="#e1ed5e" style="font-size:6.75px; font-family:Arial;" text-anchor="middle"><textPath startOffset="22.20632615414155" xlink:href="#id68">August</textPath></text><path d="M 89.1626897886671 117.98757091392108 l -4.339418162596659 7.202487554821435 a29.408708400654135,29.408708400654135 0 0,0 -0.43135685192985335,-0.2649746097659488 l 4.462754214458821 -7.126724478227108" fill="#ff4506" stroke="none" /><path d="M 83.50135304334701 112.99209946851258 l -8.620499075826924 6.788337356124918 a31.97244404756269,31.97244404756269 0 0,0 -0.3367660314379816,-0.4353154921514723 l 8.736071924482973 -6.638943869860193" fill="#ff6a09" stroke="none" /><path d="M 83.28015986056508 112.70617746262583 l -25.558222311414678 19.42287160701606 a53.100944988930245,53.100944988930245 0 0,0 -0.5467848134142974,-0.7325076118656116 l 25.88876839152406 -18.980051115641142" fill="#86ff25" stroke="none" /><path d="M 83.06392112726016 112.41649034213515 l -27.765865468828967 20.35622312728199 a55.42846359105789,55.42846359105789 0 0,0 -0.5575053137144919,-0.7743261199567386 l 28.112150574919067 -19.875263401874115" fill="#6cff28" stroke="none" /><path d="M 82.44556493220864 111.52570212397912 l -17.627490915204323 11.573668346329475 a42.087395167645525,42.087395167645525 0 0,0 -0.392405108902544,-0.6090214431913281 l 17.82410088748391 -11.2685253032167" fill="#fff316" stroke="none" /><line stroke="#e1ed5e" stroke-width="0.3" x1="26.63291911575756" x2="22.317208475507996" y1="142.92168965132927" y2="145.44649492493687" /><path d="M 25.769776987707644 143.4266507060508 a86.0,86.0 0 0,1 -11.730757126820373,-40.83630448921669" fill="none" id="id69" stroke="none" /><text fill="#e1ed5e" style="font-size:6.75px; font-family:Arial;" text-anchor="middle"><textPath startOffset="21.46611528233685" xlink:href="#id69">September</textPath></text><path d="M 81.87401531095188 110.60418214915194 l -22.907066846016534 13.40124211208936 a47.53915977635138,47.53915977635138 0 0,0 -0.40713442811285705,-0.7098731928778496 l 23.134353270281768 -13.004949073353202" fill="#c7ff1e" stroke="none" /><path d="M 81.69416730710424 110.29060199501025 l -54.91749807868727 30.871805985030743 a84.0,84.0 0 0,0 -0.6976943621939338,-1.2665179264087099 l 55.44076885033272 -29.92191754022421" fill="#4dd2ff" stroke="none" /><path d="M 81.51974371655577 109.97397251340807 l -11.69256974756651 6.310592639227183 a34.28682681304968,34.28682681304968 0 0,0 -0.2758415900472603,-0.5217883347520518 l 11.799463845838657 -6.108389289389005" fill="#ff8b0c" stroke="none" /><path d="M 81.02952815118164 109.00673069616217 l -10.980461979052997 5.213263262660404 a33.15519062455349,33.15519062455349 0 0,0 -0.24033626650339243,-0.5176629367302982 l 11.068572862396216 -5.023480258651279" fill="#ff7b0b" stroke="none" /><path d="M 80.20201598880116 107.00284435728193 l -14.271527444165411 5.048053649080412 a36.138009817461494,36.138009817461494 0 0,0 -0.20238863361890946,-0.5882361053159674 l 14.356306908727548 -4.801644840675148" fill="#ffa40f" stroke="none" /><path d="M 79.97269907076064 106.31721596034903 l -15.31875962597749 4.831999735954971 a37.062771178310015,37.062771178310015 0 0,0 -0.18667852035222002,-0.6100762056579585 l 15.39966491883584 -4.567596557744965" fill="#ffb110" stroke="none" /><path d="M 79.50377843672027 104.57218783832718 l -20.88001568878687 4.657802585789165 a42.393227435152696,42.393227435152696 0 0,0 -0.15274877645020188,-0.7135914308892393 l 20.95709850396151 -4.297697335483762" fill="#fff717" stroke="none" /><path d="M 79.4281124754447 104.21870165774334 l -21.076157684147393 4.322112944417079 a42.51476430341134,42.51476430341134 0 0,0 -0.14084547629105096,-0.7181680492179283 l 21.14743309341411 -3.9586811681311964" fill="#fff917" stroke="none" /><path d="M 79.29508885075956 103.50808413554451 l -20.118489881160222 3.408725334510796 a41.405220986416246,41.405220986416246 0 0,0 -0.11301307748687835,-0.7037325413902096 l 20.17418471300839 -3.061913563427373" fill="#ffeb16" stroke="none" /><path d="M 79.18660465613746 102.79330883721812 l -11.369796770439093 1.5259093132830341 a32.471733863433684,32.471733863433684 0 0,0 -0.0695799531425014,-0.5546206868722855 l 11.394378232828442 -1.32997087212334" fill="#ff710a" stroke="none" /><path d="M 79.10278846688536 102.07522291339032 l -21.909067707898284 2.175706516938998 a43.01683325724029,43.01683325724029 0 0,0 -0.06683055009043795,-0.7374695513480719 l 21.943272854265796 -1.7982555770423603" fill="#ffff18" stroke="none" /><path d="M 79.07016306316243 101.71520430193888 l -21.128218963293598 1.7314617484842878 a42.199047062246535,42.199047062246535 0 0,0 -0.05309733545096301,-0.7244709561989205 l 21.154892857408896 -1.3675176557886066" fill="#fff517" stroke="none" /><path d="M 79.0095281055655 100.63252640178507 l -22.13885157673676 0.6671316489649796 a43.14890096085651,43.14890096085651 0 0,0 -0.01598140223258874,-0.7425929640341257 l 22.147055041654355 -0.28594886914072504" fill="#fdff18" stroke="none" /><line stroke="#e1ed5e" stroke-width="0.3" x1="15.007084014347285" x2="10.007500721073583" y1="101.09737516637583" y2="101.16192664675087" /><path d="M 14.007167355692545 101.11028546245083 a86.0,86.0 0 0,1 10.666146001902534,-42.60595125391555" fill="none" id="id70" stroke="none" /><text fill="#e1ed5e" style="font-size:6.75px; font-family:Arial;" text-anchor="middle"><textPath startOffset="22.20632615414155" xlink:href="#id70">October</textPath></text><path d="M 79.00175016825051 100.2711162175752 l -34.15564998497745 0.44099630716595545 a55.1584968000529,55.1584968000529 0 0,0 -0.004086201094227699,-0.9494892280834297 l 34.158180483361186 0.14700239912114968" fill="#6fff27" stroke="none" /><path d="M 79.00019446554 99.90962569577889 l -31.80518082773953 -0.13687608121975817 a52.80547535483191,52.80547535483191 0 0,0 0.011735370363173686,-0.90891736745967 l 31.79811245025864 0.6843297067399001" fill="#89ff24" stroke="none" /><path d="M 79.21141760316559 97.0276538004421 l -21.467313695802154 -3.069391027266548 a42.685633921844186,42.685633921844186 0 0,0 0.11025924166987866,-0.726470640560635 l 21.411298560692977 3.4384607802192755" fill="#fffb17" stroke="none" /><path d="M 79.26566170972629 96.67025291283419 l -21.18786102985603 -3.402578734838698 a42.45933356531065,42.45933356531065 0 0,0 0.12209714833814392,-0.7206242810150238 l 21.12615201999766 3.7667888041695496" fill="#fff817" stroke="none" /><path d="M 79.3925641242962 95.95851677861259 l -28.274442730136247 -5.545119081149257 a49.813060533790576,49.813060533790576 0 0,0 0.17225997755204134,-0.8400008274295857 l 28.174803456669213 6.030995564742245" fill="#acff21" stroke="none" /><path d="M 79.46518482838121 95.60439243477599 l -49.22555216575094 -10.537041979377435 a71.34068175639092,71.34068175639092 0 0,0 0.26737676615853817,-1.1985976153735083 l 49.036881012590364 11.382817764300903" fill="#3dffa9" stroke="none" /><path d="M 79.62865764111835 94.90015583598534 l -20.614995284106147 -5.160841221884504 a42.251172030766234,42.251172030766234 0 0,0 0.1826934001510595,-0.7039921961102369 l 20.523105552084782 5.514929843543604" fill="#fff517" stroke="none" /><path d="M 79.71946130924805 94.55025226153421 l -10.036626034031235 -2.697023035967519 a31.392679895172996,31.392679895172996 0 0,0 0.14472508196324652,-0.5206531220417223 l 9.988714181501628 2.869387461428184" fill="#ff6209" stroke="none" /><path d="M 79.81627453868168 94.20196356495316 l -21.2719267425143 -6.110636340804128 a43.132210549975596,43.132210549975596 0 0,0 0.21113032805112905,-0.7118265076801159 l 21.163590517351462 6.475892235230783" fill="#fdff18" stroke="none" /><path d="M 79.91906864156998 93.8553929516997 l -20.574818897716955 -6.2957327506296545 a42.516491896710335,42.516491896710335 0 0,0 0.2201635877705165,-0.697978738358266 l 20.463399826178232 6.648961655414335" fill="#fff917" stroke="none" /><path d="M 80.02781315780177 93.51064311812611 l -20.520596583507697 -6.667546008431332 a42.57663212639119,42.57663212639119 0 0,0 0.2324738981759862,-0.6950673657099268 l 20.402785391559938 7.0197864770635805" fill="#fffa17" stroke="none" /><path d="M 80.14247586403 93.16781622104843 l -11.387780138976634 -3.9180819426954443 a33.04296070753977,33.04296070753977 0 0,0 0.18967748162935405,-0.536243782810561 l 11.31864957653747 4.113523351932616" fill="#ff790b" stroke="none" /><path d="M 80.2630227832202 92.82701384747504 l -39.15063655487388 -14.228469272989624 a62.6559921320359,62.6559921320359 0 0,0 0.37711570992226007,-1.0104826124567707 l 38.89991625644999 14.900275022475737" fill="#31ff42" stroke="none" /><path d="M 80.38941819471856 92.48833698450439 l -12.868827216385332 -4.929292481679018 a34.78058918534027,34.78058918534027 0 0,0 0.21896277281986104,-0.5572363734152087 l 12.78207089368378 5.15007785998999" fill="#ff920d" stroke="none" /><path d="M 80.52162464483688 92.15188598940014 l -20.073690928113756 -8.08797510802776 a42.64182082971563,42.64182082971563 0 0,0 0.28017364315167015,-0.6784627000657939 l 19.931495598075887 8.432312378546865" fill="#fffa17" stroke="none" /><path d="M 80.803312248108 91.48605970444005 l -20.430206795344013 -9.061019438853895 a43.349394241719594,43.349394241719594 0 0,0 0.30839519336929205,-0.6795079292572549 l 20.27120928501137 9.411349376953222" fill="#fbff18" stroke="none" /><path d="M 80.95270993114464 91.15688171328213 l -19.960749204368224 -9.267211538630466 a43.00710609102006,43.00710609102006 0 0,0 0.3175190193329124,-0.6687760321607079 l 19.798271991193563 9.609429986431707" fill="#ffff18" stroke="none" /><path d="M 81.10775173730289 90.83032412892265 l -22.439805782604292 -10.891543599005862 a45.94334792144083,45.94334792144083 0 0,0 0.35144470547510026,-0.7084910807911801 l 22.24900106417578 11.276194268296004" fill="#daff1c" stroke="none" /><path d="M 81.26839172434947 90.50648371742162 l -46.17164492060393 -23.400620832807697 a72.76301623780404,72.76301623780404 0 0,0 0.575834614930499,-1.1123291915690112 l 45.76200087251332 24.191922746637044" fill="#3effb9" stroke="none" /><path d="M 81.6062741919709 89.86733742301443 l -19.61920972538528 -10.807752287340618 a43.39912720962959,43.39912720962959 0 0,0 0.36608684570303035,-0.6512276494377268 l 19.43026523838982 11.143863446713128" fill="#faff18" stroke="none" /><line stroke="#e1ed5e" stroke-width="0.3" x1="26.266209847984243" x2="21.928928074336255" y1="57.711370442889674" y2="55.22380399835377" /><path d="M 25.398753493254645 57.213857153982495 a86.0,86.0 0 0,1 29.58750427330803,-30.492523968695096" fill="none" id="id71" stroke="none" /><text fill="#e1ed5e" style="font-size:6.75px; font-family:Arial;" text-anchor="middle"><textPath startOffset="21.46611528233685" xlink:href="#id71">November</textPath></text><path d="M 81.78341655067845 89.55222093294921 l -18.857876699421492 -10.815580757904334 a42.73928013392657,42.73928013392657 0 0,0 0.37150676707385377,-0.6350254906171146 l 18.66891025787731 11.138585660875341" fill="#fffc17" stroke="none" /><path d="M 81.96595687620814 89.24020034530311 l -11.418071228025294 -6.812457861683275 a34.2959366983101,34.2959366983101 0 0,0 0.3068411756470681,-0.5043662143089678 l 11.299114254092009 7.007991849199318" fill="#ff8b0c" stroke="none" /><path d="M 82.15384107792192 88.93136811851018 l -17.78129130570478 -11.028399371525026 a41.92366873175414,41.92366873175414 0 0,0 0.3856426601476629,-0.6099940760684509 l 17.588821049311154 11.332841095307693" fill="#fff116" stroke="none" /><path d="M 82.34701348167596 88.62581576622439 l -28.26376510767177 -18.210928283501456 a54.6225865603537,54.6225865603537 0 0,0 0.5160621409060676,-0.7859980455883404 l 27.94610633140778 18.694744393067463" fill="#75ff27" stroke="none" /><path d="M 82.54541684631803 88.32363383020206 l -4.874784985475958 -3.2610217034855644 a26.86496301823172,26.86496301823172 0 0,0 0.2604309143440977,-0.38215023131301695 l 4.817929605463119 3.344449958068997" fill="#ff1f03" stroke="none" /><path d="M 82.7489923806493 88.02491185347247 l -17.961949737961117 -12.46860103141483 a42.86544420014467,42.86544420014467 0 0,0 0.4259751071938683,-0.6025115799709163 l 17.74466201096337 12.77593911171753" fill="#fffd18" stroke="none" /><path d="M 82.95767976084542 87.72973835380427 l -7.375760120896965 -5.31045686578834 a30.0886076757891,30.0886076757891 0 0,0 0.3062409713202571,-0.4177123407203086 l 7.283256537063075 5.436631650180149" fill="#ff4f07" stroke="none" /><path d="M 83.17141714833178 87.43820079747576 l -17.13553604946548 -12.790926305459088 a42.38303980855426,42.38303980855426 0 0,0 0.44143764440810457,-0.5808801953020198 l 16.912822464833265 13.083991276642134" fill="#fff717" stroke="none" /><path d="M 83.6137871275137 86.86637796730984 l -16.50748502149172 -13.23082219605455 a42.15541816458335,42.15541816458335 0 0,0 0.45869412465512044,-0.5623047602233715 l 16.27729240476021 13.513011125886003" fill="#fff417" stroke="none" /><path d="M 84.31358615837235 86.03803664274999 l -17.982513369669572 -16.005646368471268 a45.0738759397589,45.0738759397589 0 0,0 0.5208315542317113,-0.575115210715058 l 17.704338174821817 16.312814366455882" fill="#e5ff1a" stroke="none" /><path d="M 84.80347519578584 85.50635884689758 l -26.31352275581025 -25.096445484098304 a57.362522681421076,57.362522681421076 0 0,0 0.6876284230025765,-0.7086615341489884 l 25.87763006910456 25.545671213797416" fill="#57ff2a" stroke="none" /><path d="M 85.31137513191541 84.99185889309783 l -16.174200972515308 -16.526032400373932 a44.1238950870636,44.1238950870636 0 0,0 0.5473816203460644,-0.5265806850830189 l 15.887336108556816 16.801996172219265" fill="#f1ff19" stroke="none" /><path d="M 85.83668400450813 84.49514656593479 l -29.28048230150419 -32.05390508183721 a64.41427731523501,64.41427731523501 0 0,0 0.8250825161782995,-0.7407672295733245 l 28.72438879772992 32.55317132017981" fill="#34ff57" stroke="none" /><path d="M 86.37877921826538 84.01681056812374 l -15.279873931057326 -17.929458999942604 a44.55716552091164,44.55716552091164 0 0,0 0.588032504694574,-0.4924603117721867 l 14.96898388940364 18.189820469108604" fill="#ebff1a" stroke="none" /><path d="M 86.93701828274178 83.55741782278169 l -14.50930051948086 -18.263086582317715 a44.325096635980756,44.325096635980756 0 0,0 0.6014861681269987,-0.4694694948386283 l 14.192781796194435 18.510134466379565" fill="#eeff19" stroke="none" /><path d="M 87.80319425747018 82.90503203632743 l -8.881533833820328 -12.448303233034885 a36.2918898970298,36.2918898970298 0 0,0 0.5116618325794707,-0.3584518118755295 l 8.665940861657196 12.599339887674358" fill="#ffa70f" stroke="none" /><path d="M 88.09926311788651 82.69761687909137 l -12.112955083546284 -17.61092541226364 a42.374479519565455,42.374479519565455 0 0,0 0.6045331019537165,-0.40818344901677434 l 11.808017287186027 17.816820773579078" fill="#fff717" stroke="none" /><path d="M 88.39885842347998 82.49532879139004 l -8.625559970071647 -13.014890842453044 a36.613701304888295,36.613701304888295 0 0,0 0.5283408954031441,-0.34364761512832953 l 8.400252048884216 13.161437381740908" fill="#ffab0f" stroke="none" /><path d="M 88.70189139769569 82.29822771554957 l -11.503196312284057 -18.023101815630575 a42.381200257598536,42.381200257598536 0 0,0 0.6183232408764183,-0.38719395671173173 l 11.191253919035397 18.218440113665235" fill="#fff717" stroke="none" /><path d="M 89.00827224532344 82.1063720568725 l -12.140741452929152 -19.76412765681822 a44.19522246200452,44.19522246200452 0 0,0 0.6516436841041152,-0.39260802838178727 l 11.798735702607386 19.970182294658628" fill="#f0ff19" stroke="none" /><line stroke="#e1ed5e" stroke-width="0.3" x1="56.762969772571076" x2="54.21961505331055" y1="26.818313649435495" y2="22.513508569990535" /><path d="M 56.25429882871897 25.957352633546506 a86.0,86.0 0 0,1 42.265352541879196,-11.944610805530505" fill="none" id="id72" stroke="none" /><text fill="#e1ed5e" style="font-size:6.75px; font-family:Arial;" text-anchor="middle"><textPath startOffset="22.20632615414155" xlink:href="#id72">December</textPath></text><path d="M 89.63071344664047 81.73862282372117 l -12.510956794172797 -22.033078136942507 a46.33733553660038,46.33733553660038 0 0,0 0.6969927653618057,-0.38787571930579184 l 12.129839939738947 22.245169253808484" fill="#d5ff1c" stroke="none" /><path d="M 90.26544431104013 81.39251694778311 l -9.97926713467042 -19.075245960379885 a42.52790702771875,42.52790702771875 0 0,0 0.6515670509985056,-0.33375795052299473 l 9.64943959608315 19.244196436215386" fill="#fff917" stroke="none" /><path d="M 91.23893434514133 80.91482961587045 l -9.528090907489386 -20.75606388180227 a43.83853550924049,43.83853550924049 0 0,0 0.6885110910084182,-0.3089148569188961 l 9.169397698014192 20.916999069237697" fill="#f4ff19" stroke="none" /><path d="M 92.91201910852362 80.23233633223022 l -8.546968433136188 -23.836632738168895 a46.322632755923536,46.322632755923536 0 0,0 0.7528927704173446,-0.26266950416154394 l 8.135393658655559 23.980223095502648" fill="#d6ff1c" stroke="none" /><path d="M 93.59665428221793 80.00007090966166 l -7.145169305075323 -22.316908337953326 a44.432836835577575,44.432836835577575 0 0,0 0.7304221527428055,-0.2269457183700388 l 6.759961779621789 22.436594191205888" fill="#edff1a" stroke="none" /></svg>