<?xml version="1.0" encoding="utf-8" ?>
<svg baseProfile="full" height="200mm" version="1.1" viewBox="0,0,200,200" width="200mm" xmlns="http://www.w3.org/2000/svg" xmlns:ev="http://www.w3.org/2001/xml-events" xmlns:xlink="http://www.w3.org/1999/xlink"><defs /><rect fill="#1a1a1a" height="200" width="200" x="0" y="0" /><text alignment-baseline="middle" fill="#e1ed5e" style="dominant-baseline: central; font-size:9.0px; font-family:Arial;" text-anchor="middle" x="100.0" y="100.0">2021</text><line stroke="#e1ed5e" stroke-width="0.3" x1="100.0" x2="100.0" y1="15.0" y2="10.0" /><path d="M 100.0 14.0 a86.0,86.0 0 0,1 42.46469731375804,11.215312516191453" fill="none" id="id37" stroke="none" /><text fill="#e1ed5e" style="font-size:6.75px; font-family:Arial;" text-anchor="middle"><textPath startOffset="22.20632615414155" xlink:href="#id37">January</textPath></text><path d="M 102.88285421437855 79.19881850522331 l 1.8913480558163778 -13.646987066708217 a34.7774255021445,34.7774255021445 0 0,0 0.5922612447808765,0.08728391193542855 l -2.12597828102591 13.612408670611819" fill="#ff920d" stroke="none" /><path d="M 103.2404852339499 79.25152402106235 l 3.694441577658913 -23.655109280102796 a44.94186905035487,44.94186905035487 0 0,0 0.7633072434187042,0.12595223543292408 l -4.101078027216492 23.588010781730247" fill="#e6ff1a" stroke="none" /><path d="M 108.76106565485865 80.91482961587045 l 10.455996862146685 -22.77742109366866 a46.062697022856966,46.062697022856966 0 0,0 0.7177484815325685,0.33699253603594836 l -10.846523554978852 22.59406357499271" fill="#d8ff1c" stroke="none" /><path d="M 109.41281617654863 81.2277094730956 l 16.438333640157794 -32.78351229678176 a57.67393476814813,57.67393476814813 0 0,0 0.883618269101995,0.45262359735381275 l -17.000212396848546 32.495696174115444" fill="#54ff2b" stroke="none" /><path d="M 110.05341064243156 81.56283822128135 l 19.0752442568319 -34.98249269232294 a60.84519718141983,60.84519718141983 0 0,0 0.915215813584411,0.5093166093765878 l -19.674584159488347 34.64896068538617" fill="#33ff2f" stroke="none" /><line stroke="#e1ed5e" stroke-width="0.3" x1="143.23703022742887" x2="145.7803849466894" y1="26.81831364943548" y2="22.513508569990506" /><path d="M 143.74570117128098 25.957352633546492 a86.0,86.0 0 0,1 28.547481713284135,27.462654790039103" fill="none" id="id38" stroke="none" /><text fill="#e1ed5e" style="font-size:6.75px; font-family:Arial;" text-anchor="middle"><textPath startOffset="19.985693538727396" xlink:href="#id38">February</textPath></text><path d="M 112.48926042617603 83.11751280151076 l 6.165638599505633 -8.334465867050206 a31.367179974744275,31.367179974744275 0 0,0 0.43130446968859226,0.32484958469006064 l -6.308189222952608 8.227099692854297" fill="#ff6209" stroke="none" /><path d="M 114.16331599549186 84.49514656593476 l 24.51370648223647 -26.835624246027574 a57.3465615178551,57.3465615178551 0 0,0 0.7230913038762787,0.6720345616158402 l -24.972005669907595 26.409685098337093" fill="#57ff2a" stroke="none" /><path d="M 114.68862486808459 84.99185889309783 l 31.053593240237312 -31.729090599792784 a65.39663099177652,65.39663099177652 0 0,0 0.7977274118933957,0.7943017168697887 l -31.59515645229803 31.189853032272875" fill="#35ff64" stroke="none" /><path d="M 115.4437574822437 85.77008943001954 l 25.393170108895244 -23.397320254046363 a55.528939793305256,55.528939793305256 0 0,0 0.6416404938426095,0.7085154592139603 l -25.792154243353888 22.956752007562855" fill="#6bff28" stroke="none" /><path d="M 116.15771136456269 86.58626213691792 l 12.874305266041938 -10.687934207485302 a37.73259315547861,37.73259315547861 0 0,0 0.4105692587568684,0.5033093649803134 l -13.056373016875215 10.464740672896887" fill="#ffbb11" stroke="none" /><path d="M 116.60985879189232 87.15038557335679 l 33.83865597594477 -26.178048077022762 a63.78252960474939,63.78252960474939 0 0,0 0.6643225627584026,0.8741706215745504 l -34.28425447892729 25.591692679567178" fill="#33ff50" stroke="none" /><line stroke="#e1ed5e" stroke-width="0.3" x1="172.23445277983987" x2="176.4835382374775" y1="55.19839476539836" y2="52.563006222186495" /><path d="M 173.08426987136738 54.67131705675599 a86.0,86.0 0 0,1 12.851231095245387,41.99856678651699" fill="none" id="id39" stroke="none" /><text fill="#e1ed5e" style="font-size:6.75px; font-family:Arial;" text-anchor="middle"><textPath startOffset="22.20632615414155" xlink:href="#id39">March</textPath></text><path d="M 118.03404312379186 89.2402003453031 l 21.511831550371642 -12.834781202348536 a46.04976058096612,46.04976058096612 0 0,0 0.4002827755720498,0.684213017020737 l -21.72957400041402 12.462588772973904" fill="#d8ff1c" stroke="none" /><path d="M 118.73160827565052 90.50648371742162 l 33.35729052661153 -16.906075340510863 a58.396847657199615,58.396847657199615 0 0,0 0.44670804053401647,0.90053615122246 l -33.64335858009895 16.32937960078945" fill="#4cff2c" stroke="none" /><path d="M 118.89224826269711 90.83032412892265 l 6.188860527512398 -3.0038693256348123 a27.879333220195893,27.879333220195893 0 0,0 0.20583153223555709,0.4335337004733146 l -6.239650253589712 2.8968932095209574" fill="#ff2f04" stroke="none" /><path d="M 119.196687751892 91.48605970444005 l 22.58784045592517 -10.017953489316216 a45.70971324350877,45.70971324350877 0 0,0 0.3128052592152029,0.7219976658844263 l -22.756936424983056 9.627656678845188" fill="#ddff1b" stroke="none" /><path d="M 119.47837535516314 92.15188598940014 l 34.76120774099877 -14.00578418493156 a58.47670682234168,58.47670682234168 0 0,0 0.3681427535043021,0.9368831524187777 l -34.99714404438477 13.405352027616997" fill="#4bff2c" stroke="none" /><path d="M 119.7369772167798 92.82701384747503 l 24.01484701348574 -8.727687284164766 a46.55162230488108,46.55162230488108 0 0,0 0.2672216501027984,0.7554715892950107 l -24.161521744398346 8.31301806844314" fill="#d2ff1c" stroke="none" /><path d="M 119.85752413597 93.16781622104841 l 59.57257240790998 -20.496551336854747 a84.0,84.0 0 0,0 0.45865082491291975,1.371307588310744 l -59.91656052659467 19.46807064562169" fill="#4dd2ff" stroke="none" /><path d="M 120.08093135843002 93.85539295169968 l 23.035535628219247 -7.048692715296216 a45.08983127117391,45.08983127117391 0 0,0 0.22071279785262068,0.7441338321498207 l -23.15345432318357 6.651129496399865" fill="#e4ff1a" stroke="none" /><path d="M 120.28053869075195 94.5502522615342 l 24.311622894935116 -6.532973009761481 a46.17408874481468,46.17408874481468 0 0,0 0.19965603002739735,0.7693561285159644 l -24.420475256832816 6.1135204556966665" fill="#d7ff1c" stroke="none" /><line stroke="#e1ed5e" stroke-width="0.3" x1="184.98032266829074" x2="189.97916517819016" y1="98.17113171792111" y2="98.06355123074" /><path d="M 185.9800911702706 98.14961562048488 a86.0,86.0 0 0,1 -9.607161424134198,41.387399972396054" fill="none" id="id40" stroke="none" /><text fill="#e1ed5e" style="font-size:6.75px; font-family:Arial;" text-anchor="middle"><textPath startOffset="21.466115282336823" xlink:href="#id40">April</textPath></text><path d="M 120.99513854157772 99.54816195383933 l 25.381413811922656 -0.5462354250658213 a46.387290919506455,46.387290919506455 0 0,0 0.010309007454752127,0.7984439882953677 l -25.38705582649512 0.10925517870999091" fill="#d4ff1c" stroke="none" /><path d="M 120.99824983174949 100.27111621757518 l 37.446095632351266 0.4834804753799756 a58.449216700450094,58.449216700450094 0 0,0 -0.021648302076500772,1.0059115321253889 l -37.43222526758976 -1.1279818232954792" fill="#4bff2c" stroke="none" /><path d="M 120.9764740272857 100.99374915477107 l 43.05310451710948 2.039617629182837 a64.10139033296288,64.10139033296288 0 0,0 -0.061701095800573,1.1017145139709228 l -43.01161707042137 -2.780403859489183" fill="#33ff54" stroke="none" /><path d="M 120.92983693683757 101.71520430193887 l 34.31145722471622 2.8118307474265976 a55.42647947489991,55.42647947489991 0 0,0 -0.08611006046709556,0.9502173418187914 l -34.257972567972054 -3.4020294777939597" fill="#6cff28" stroke="none" /><path d="M 120.81339534386255 102.79330883721812 l 32.36955288675646 4.344229119831638 a53.65976547273597,53.65976547273597 0 0,0 -0.13074061060186407,0.9143995260422789 l -32.28997822513799 -4.9007741178543265" fill="#7fff26" stroke="none" /><path d="M 120.64145759157962 103.86396538481128 l 34.4429586861259 6.4475291787517035 a56.04123336249781,56.04123336249781 0 0,0 -0.18565677910263909,0.9466599168346673 l -34.32687197404759 -7.039452822654315" fill="#65ff29" stroke="none" /><path d="M 120.49622156327973 104.57218783832717 l 36.675691815245834 8.181417807286298 a58.57714687764721,58.57714687764721 0 0,0 -0.22800299215151273,0.982230922796011 l -36.529428257163765 -8.811517387430873" fill="#4aff2c" stroke="none" /><path d="M 120.23288151984713 105.62410040840565 l 44.48378957604148 12.365084967093534 a67.17036778377425,67.17036778377425 0 0,0 -0.3192427279947337,1.111325816860963 l -44.26435421116065 -13.128968259459079" fill="#37ff79" stroke="none" /><path d="M 120.02730092923936 106.31721596034902 l 35.884397723280976 11.31902350825825 a58.62725465859974,58.62725465859974 0 0,0 -0.3118627927147345,0.9598149829956437 l -35.684242679549996 -11.935037391231688" fill="#4aff2c" stroke="none" /><path d="M 119.79798401119884 107.00284435728193 l 35.42047423432541 12.528753835935417 a58.570995031619496,58.570995031619496 0 0,0 -0.34438556643754337,0.9476011711207463 l -35.199564406882644 -13.136602804062296" fill="#4aff2c" stroke="none" /><path d="M 119.54520255179757 107.68017299344265 l 38.839971661201396 15.261939630858537 a62.730926181177644,62.730926181177644 0 0,0 -0.40356114915664737,1.0016056763978411 l -38.571507897787356 -15.928244675099192" fill="#31ff43" stroke="none" /><path d="M 118.97047184881838 109.00673069616215 l 33.94958485279852 16.118458752764663 a58.581631473925434,58.581631473925434 0 0,0 -0.4403295119217183,0.9072092158520367 l -33.66710208426209 -16.700456924581975" fill="#4aff2c" stroke="none" /><path d="M 118.64920377521936 109.65438752849418 l 46.317301912053885 23.97770903910739 a73.1557569897748,73.1557569897748 0 0,0 -0.5885467453491285,1.1133086425685526 l -45.897702658479865 -24.771432696762076" fill="#3fffbd" stroke="none" /><line stroke="#e1ed5e" stroke-width="0.3" x1="174.80103733775053" x2="179.2010983576182" y1="140.37084112569926" y2="142.7455964860345" /><path d="M 175.68104954172406 140.8457921977663 a86.0,86.0 0 0,1 -30.038265399797805,32.042727171017184" fill="none" id="id41" stroke="none" /><text fill="#e1ed5e" style="font-size:6.75px; font-family:Arial;" text-anchor="middle"><textPath startOffset="22.206326154141568" xlink:href="#id41">May</textPath></text><path d="M 118.30583269289576 110.29060199501025 l 29.18568181219442 16.406696189180142 a54.48109470562028,54.48109470562028 0 0,0 -0.4665864823923319,0.8135328607426733 l -28.89894333364971 -16.906648895781128" fill="#76ff27" stroke="none" /><path d="M 116.93607887273984 112.41649034213515 l 29.819288403303585 21.86166640171438 a57.97461857462823,57.97461857462823 0 0,0 -0.5969694325910856,0.7997381103061826 l -29.438557704017406 -22.371717391529877" fill="#50ff2b" stroke="none" /><path d="M 116.498646956653 112.99209946851258 l 29.3487409941111 23.11109288373165 a58.356006374074425,58.356006374074425 0 0,0 -0.6282498935805237,0.7838383400788861 l -28.946573188475725 -23.612859057388786" fill="#4cff2c" stroke="none" /><path d="M 115.56566222782051 114.09645910891815 l 27.65202149600681 25.04201778198065 a58.30599077103646,58.30599077103646 0 0,0 -0.6801077083206507,0.7381225944783332 l -27.216867379690438 -25.51429163126032" fill="#4dff2c" stroke="none" /><path d="M 115.32070863581623 114.36230785411682 l 7.242409457824013 6.7893539856026415 a30.927125580781034,30.927125580781034 0 0,0 -0.3674340579564241,0.3852531407853055 l -7.1244688484886245 -6.913014242970454" fill="#ff5c08" stroke="none" /><path d="M 113.48314897796784 116.09983520530334 l 21.19899573422235 25.313102925482074 a54.01742872871276,54.01742872871276 0 0,0 -0.7179941874948524,0.5908603355128477 l -20.760131418182805 -25.6742583798521" fill="#7bff26" stroke="none" /><path d="M 112.63410532772338 116.77436683061366 l 21.244202327575145 28.20603704201797 a56.31142390432081,56.31142390432081 0 0,0 -0.7792831487489028,0.5764950434155489 l -20.755534208407678 -28.56754203417329" fill="#62ff29" stroke="none" /><path d="M 111.7513745106137 117.40417183066458 l 10.152608750008897 15.036347199646494 a39.142965621393714,39.142965621393714 0 0,0 -0.5616555194322709,0.37223465214032453 l -9.892278531836663 -15.208879872878137" fill="#ffcd13" stroke="none" /><line stroke="#e1ed5e" stroke-width="0.3" x1="143.8653032363475" x2="146.44561519142675" y1="172.8068346515853" y2="177.08958963109032" /><path d="M 144.38136562736335 173.6633856474863 a86.0,86.0 0 0,1 -40.68145358897372,12.25698825130547" fill="none" id="id42" stroke="none" /><text fill="#e1ed5e" style="font-size:6.75px; font-family:Arial;" text-anchor="middle"><textPath startOffset="21.466115282336833" xlink:href="#id42">June</textPath></text><line stroke="#e1ed5e" stroke-width="0.3" x1="102.19456741930631" x2="102.32365962044197" y1="184.97166512339345" y2="189.96999836594603" /><path d="M 102.22038585953345 185.97133177190398 a86.0,86.0 0 0,1 -42.740103519485714,-10.115201625700543" fill="none" id="id43" stroke="none" /><text fill="#e1ed5e" style="font-size:6.75px; font-family:Arial;" text-anchor="middle"><textPath startOffset="22.20632615414155" xlink:href="#id43">July</textPath></text><path d="M 94.81253420990036 120.34920634021253 l -7.716343694860802 30.269398660594227 a52.23745276572982,52.23745276572982 0 0,0 -0.8694042373717131,-0.22961756098201938 l 8.236238375044005 -30.132089750308626" fill="#8fff24" stroke="none" /><path d="M 93.08242187328487 119.8279376855182 l -7.310321172722363 20.953661819023562 a43.19226755593846,43.19226755593846 0 0,0 -0.699880180063483,-0.2509521320266716 l 7.669920913415572 -20.824722145956933" fill="#fcff18" stroke="none" /><path d="M 92.40401165467489 119.57807347666478 l -6.182692744771781 15.93541318626172 a38.09277867969797,38.09277867969797 0 0,0 -0.6092648339767907,-0.2424390512325211 l 6.4560786547904305 -15.826627290623133" fill="#ffbf11" stroke="none" /><path d="M 92.06813273071674 119.44442032107085 l -7.001006414338198 17.16247975027021 a39.535501126002494,39.535501126002494 0 0,0 -0.6279151423139071,-0.26246858041264 l 7.295393016149567 -17.0394261268376" fill="#ffd313" stroke="none" /><line stroke="#e1ed5e" stroke-width="0.3" x1="58.666819895761336" x2="56.23545636021788" y1="174.27360380694188" y2="178.64263932499728" /><path d="M 58.180547188652646 175.14741091055294 a86.0,86.0 0 0,1 -31.652253787137756,-30.449443065178592" fill="none" id="id44" stroke="none" /><text fill="#e1ed5e" style="font-size:6.75px; font-family:Arial;" text-anchor="middle"><textPath startOffset="22.20632615414155" xlink:href="#id44">August</textPath></text><path d="M 86.79598089348748 116.32954008644616 l -23.472849498925193 29.02910346795575 a58.33180295341324,58.33180295341324 0 0,0 -0.7753404123877514,-0.6380523744885782 l 23.969060039857634 -28.620755974609988" fill="#4dff2c" stroke="none" /><path d="M 86.51685102203217 116.09983520530335 l -10.947274466577545 13.071821363623888 a38.050376301098886,38.050376301098886 0 0,0 -0.4985224833174525,-0.4248516754974437 l 11.170662426472054 -12.881445297903493" fill="#ffbf11" stroke="none" /><path d="M 85.70375840098266 115.38237550388516 l -5.567857746754117 5.9908667617001345 a29.178723888513005,29.178723888513005 0 0,0 -0.3649621506531907,-0.34509449323146285 l 5.670155731798125 -5.894137631722741" fill="#ff4206" stroke="none" /><path d="M 85.44109423537348 115.13401014063109 l -25.881188832820886 26.903544852881144 a58.33144332933191,58.33144332933191 0 0,0 -0.7176157696248362,-0.7023380686761683 l 26.340454554821516 -26.454056681282406" fill="#4dff2c" stroke="none" /><path d="M 83.72743513129214 113.27417163493432 l -29.299843348241097 23.901035431062 a58.81190705199024,58.81190705199024 0 0,0 -0.6331580353499715,-0.7899620015975675 l 29.706919295645932 -23.393145595886175" fill="#48ff2c" stroke="none" /><path d="M 82.85270091963577 112.12312394758628 l -3.060057025428623 2.16345737203794 a24.747598804501408,24.747598804501408 0 0,0 -0.24292607464168478,-0.34995312880413976 l 3.0968440072324412 -2.110462981046788" fill="#ff0000" stroke="none" /><line stroke="#e1ed5e" stroke-width="0.3" x1="26.63291911575756" x2="22.317208475507996" y1="142.92168965132927" y2="145.44649492493687" /><path d="M 25.769776987707644 143.4266507060508 a86.0,86.0 0 0,1 -11.730757126820373,-40.83630448921669" fill="none" id="id45" stroke="none" /><text fill="#e1ed5e" style="font-size:6.75px; font-family:Arial;" text-anchor="middle"><textPath startOffset="21.46611528233685" xlink:href="#id45">September</textPath></text><path d="M 81.87401531095188 110.60418214915194 l -10.27792536584206 6.012859139213019 a32.90757006504002,32.90757006504002 0 0,0 -0.2818267041749159,-0.4913886139725625 l 10.379904066169354 -5.835050679382149" fill="#ff780b" stroke="none" /><path d="M 81.18737489456691 109.33194174019688 l -13.721625330038128 6.80656779386652 a36.31706129877546,36.31706129877546 0 0,0 -0.27297761215882527,-0.5624147343451199 l 13.83675619881167 -6.569364103556116" fill="#ffa70f" stroke="none" /><path d="M 80.32549172779594 107.34259656027581 l -23.610419925741073 8.811492807590907 a46.20107804376744,46.20107804376744 0 0,0 -0.2716529644671184,-0.7474722879077286 l 23.758597151213415 -8.403772722677061" fill="#d7ff1c" stroke="none" /><path d="M 79.97269907076064 106.31721596034903 l -24.140956287194175 7.614787179479577 a46.313450066100955,46.313450066100955 0 0,0 -0.2332725280889366,-0.7623481188527942 l 24.26845558778924 -7.198112088074735" fill="#d5ff1c" stroke="none" /><path d="M 79.76711848015287 105.62410040840567 l -24.280611459461685 6.749241164267428 a46.20119737510073,46.20119737510073 0 0,0 -0.20639158100340668,-0.7680598524663884 l 24.393191116806868 -6.3302903786255005" fill="#d7ff1c" stroke="none" /><path d="M 79.1416061653843 102.43462659150553 l -31.054003833696203 3.624675231741039 a52.26482727665092,52.26482727665092 0 0,0 -0.09660953844403024,-0.894484340918329 l 31.111795673641286 -3.089594568937928" fill="#8fff24" stroke="none" /><path d="M 79.07016306316243 101.71520430193888 l -25.243490880115715 2.0687091009927148 a46.32811459937386,46.32811459937386 0 0,0 -0.05829277230040497,-0.7953585642157567 l 25.275360211080454 -1.6338774002801977" fill="#d5ff1c" stroke="none" /><path d="M 79.04373962182676 101.35467743843564 l -24.817256780732844 1.604264178724302 a45.86905502177291,45.86905502177291 0 0,0 -0.04415147539669632,-0.788354252491613 l 24.841194607017073 -1.1768382098972514" fill="#dbff1b" stroke="none" /><line stroke="#e1ed5e" stroke-width="0.3" x1="15.007084014347285" x2="10.007500721073583" y1="101.09737516637583" y2="101.16192664675087" /><path d="M 14.007167355692545 101.11028546245083 a86.0,86.0 0 0,1 10.666146001902534,-42.60595125391555" fill="none" id="id46" stroke="none" /><text fill="#e1ed5e" style="font-size:6.75px; font-family:Arial;" text-anchor="middle"><textPath startOffset="22.20632615414155" xlink:href="#id46">October</textPath></text><path d="M 79.00175016825051 100.2711162175752 l -24.639809306284782 0.3181337470703708 a45.641862992296325,45.641862992296325 0 0,0 -0.0033811985699641668,-0.785671469944836 l 24.64163480214425 0.1060472010781406" fill="#ddff1b" stroke="none" /><path d="M 79.00019446554 99.90962569577889 l -7.2427414829861165 -0.03116970398150626 a28.242808553304044,28.242808553304044 0 0,0 0.006276618404475825,-0.48613101250280893 l 7.241131857463925 0.15583697454478718" fill="#ff3505" stroke="none" /><path d="M 79.21141760316559 97.0276538004421 l -10.46086196144946 -1.495691370468285 a31.56724778039171,31.56724778039171 0 0,0 0.0815398644013104,-0.5372458274309886 l 10.433566203608846 1.6755363102913656" fill="#ff6509" stroke="none" /><path d="M 79.54389044137918 95.25157060432595 l -4.566751613612322 -1.0600694889063087 a25.68817316464962,25.68817316464962 0 0,0 0.1036911669325063,-0.4298668296070784 l 4.547827646419001 1.138521550172784" fill="#ff0e01" stroke="none" /><path d="M 79.71946130924805 94.55025226153421 l -24.650380652009993 -6.624003349174909 a46.524864086981324,46.524864086981324 0 0,0 0.2144867781534193,-0.7716230605459797 l 24.53270710329021 7.047337713139831" fill="#d3ff1c" stroke="none" /><path d="M 80.02781315780177 93.51064311812611 l -26.47474006871068 -8.602164500970622 a48.837189078776504,48.837189078776504 0 0,0 0.26665734592153123,-0.7972715235177525 l 26.322745429017374 9.056609127410695" fill="#b7ff1f" stroke="none" /><path d="M 80.2630227832202 92.82701384747504 l -24.349033650319775 -8.849140336070365 a46.907194452349955,46.907194452349955 0 0,0 0.28232638785899733,-0.7564943556131696 l 24.193102673959153 9.266957828712876" fill="#ceff1d" stroke="none" /><path d="M 80.38941819471856 92.48833698450439 l -10.60785599143815 -4.063247093624207 a32.35942717213046,32.35942717213046 0 0,0 0.2037202378233007,-0.5184457844317317 l 10.536342203733158 4.245241882951702" fill="#ff700a" stroke="none" /><path d="M 80.52162464483688 92.15188598940014 l -23.501160404913403 -9.468951228022517 a46.33703964033957,46.33703964033957 0 0,0 0.30445269353625465,-0.7372563463690667 l 23.33468602449095 9.872082144844894" fill="#d5ff1c" stroke="none" /><line stroke="#e1ed5e" stroke-width="0.3" x1="26.266209847984243" x2="21.928928074336255" y1="57.711370442889674" y2="55.22380399835377" /><path d="M 25.398753493254645 57.213857153982495 a86.0,86.0 0 0,1 29.58750427330803,-30.492523968695096" fill="none" id="id47" stroke="none" /><text fill="#e1ed5e" style="font-size:6.75px; font-family:Arial;" text-anchor="middle"><textPath startOffset="21.46611528233685" xlink:href="#id47">November</textPath></text><path d="M 81.96595687620814 89.24020034530311 l -21.633420971272358 -12.907326099798414 a46.19134712489239,46.19134712489239 0 0,0 0.41326782764974546,-0.6793036471974055 l 21.408037345336396 13.277797520202895" fill="#d7ff1c" stroke="none" /><path d="M 82.7489923806493 88.02491185347247 l -18.619687175239857 -12.925180957786718 a43.66612126710973,43.66612126710973 0 0,0 0.43393183097901367,-0.6137658014928286 l 18.394442724456965 13.243773259611332" fill="#f6ff19" stroke="none" /><path d="M 82.95767976084542 87.72973835380427 l -19.938372908084933 -14.355384064403601 a45.568593078529915,45.568593078529915 0 0,0 0.4637958112397291,-0.6326169653067799 l 19.68831448433157 14.69646347338188" fill="#deff1b" stroke="none" /><path d="M 83.39014120810768 87.1503855733568 l -19.788945388492856 -15.308999392345992 a46.019348952033155,46.019348952033155 0 0,0 0.4900971241354443,-0.6223735775098219 l 19.52249418376344 15.647365363808863" fill="#d9ff1c" stroke="none" /><path d="M 84.31358615837235 86.03803664274999 l -46.15803100860146 -41.08375209856337 a82.79351513781381,82.79351513781381 0 0,0 0.9566844268543938,-1.0563948387301443 l 45.444002941131025 41.872199724563075" fill="#4bddff" stroke="none" /><path d="M 84.5562425177563 85.77008943001954 l -18.746208212177407 -17.272795606394283 a46.490582386335966,46.490582386335966 0 0,0 0.5473329136441425,-0.5838565905917826 l 18.44610797656281 17.592921613864117" fill="#d3ff1c" stroke="none" /><path d="M 86.10567301691215 84.25364557470407 l -8.315795821608289 -9.424239727107572 a33.56856215247673,33.56856215247673 0 0,0 0.436561071159648,-0.3785814589654137 l 8.152340951801868 9.565986179492667" fill="#ff810b" stroke="none" /><path d="M 88.39885842347998 82.49532879139004 l -16.986045447635018 -25.629817439444444 a51.74757359416142,51.74757359416142 0 0,0 0.7467248159373915,-0.485690591787755 l 16.542353605913338 25.918406955391735" fill="#95ff23" stroke="none" /><line stroke="#e1ed5e" stroke-width="0.3" x1="56.762969772571076" x2="54.21961505331055" y1="26.818313649435495" y2="22.513508569990535" /><path d="M 56.25429882871897 25.957352633546506 a86.0,86.0 0 0,1 42.265352541879196,-11.944610805530505" fill="none" id="id48" stroke="none" /><text fill="#e1ed5e" style="font-size:6.75px; font-family:Arial;" text-anchor="middle"><textPath startOffset="22.20632615414155" xlink:href="#id48">December</textPath></text><path d="M 90.26544431104013 81.39251694778311 l -8.376975129829146 -16.012484569164066 a39.07134124528374,39.07134124528374 0 0,0 0.5986092515005055,-0.30663090872802723 l 8.100105390739877 16.154308003204598" fill="#ffcc13" stroke="none" /><path d="M 90.91171255644093 81.06846463323043 l -5.939791065841129 -12.372998249949374 a34.724875358235366,34.724875358235366 0 0,0 0.5410826584342822,-0.2540455632612411 l 5.725930196107238 12.473408795850624" fill="#ff920d" stroke="none" /><path d="M 91.90106846888425 80.62456947434976 l -10.832023073357773 -25.913925769560155 a49.08672769569337,49.08672769569337 0 0,0 0.7823866451843503,-0.31915515712943054 l 10.384352558585041 26.096541812873163" fill="#b4ff20" stroke="none" /><path d="M 94.28887869178378 79.79150937346287 l -7.51416283114343 -26.588454516099812 a48.62984901528863,48.62984901528863 0 0,0 0.8074919523029916,-0.220718053749624 l 7.055372989616716 26.71385911067573" fill="#b9ff1f" stroke="none" /><path d="M 96.40284397218896 79.31037775812273 l -1.5445903721792396 -8.883960293008412 a30.01723404961737,30.01723404961737 0 0,0 0.5098224141900904,-0.0841250666683741 l 1.3914387518502633 8.909231622616414" fill="#ff4f07" stroke="none" /><path d="M 99.63851952072746 79.00311137660856 l -0.4912839282741816 -28.53662788428977 a49.5408565201643,49.5408565201643 0 0,0 0.8527644075467103,-0.0073400124830862055 l 6.990493716468614e-15 28.540856520164297" fill="#afff20" stroke="none" /></svg>